<!DOCTYPE svg PUBLIC "-//W3C//DTD SVG 20010904//EN" "http://www.w3.org/TR/2001/REC-SVG-20010904/DTD/svg10.dtd"[]><svg version="1.0" xmlns="http://www.w3.org/2000/svg"  viewBox="465 250 1000.000000 550.000000" preserveAspectRatio="xMidYMid meet"><metadata>Created by potrace 1.16, written by Peter Selinger 2001-2019</metadata><g transform="translate(0.000000,1080.000000) scale(0.100000,-0.100000)" fill="#FFFF" stroke="none"><path d="M9640 7403 c0 -5 -7 -17 -15 -27 -12 -16 -17 -17 -30 -6 -8 7 -15 9 -15 4 0 -5 -4 -16 -10 -24 -7 -12 -12 -12 -29 4 -21 19 -21 19 -21 -2 0 -17 -5 -21 -22 -19 -17 1 -23 -3 -22 -15 2 -22 -14 -24 -22 -3 -9 24 -22 18 -27 -12 -4 -27 -4 -27 -12 -5 -9 27 -25 29 -25 2 0 -11 -7 -20 -15 -20 -8 0 -15 5 -15 11 0 5 -4 7 -10 4 -5 -3 -10 -16 -10 -27 0 -20 -1 -20 -18 -5 -26 24 -35 21 -28 -8 4 -14 2 -25 -4 -25 -5 0 -10 5 -10 10 0 6 -4 10 -10 10 -5 0 -10 -6 -10 -12 0 -15 64 -185 72 -194 5 -4 206 77 336 136 48 23 48 15 5 153 -21 69 -32 92 -33 70z" /><path d="M9675 7164 c-16 -8 -68 -31 -115 -52 -47 -21 -115 -51 -153 -67 -79 -33 -92 -45 -74 -69 11 -15 29 -9 202 73 105 49 191 96 193 104 4 21 -19 26 -53 11z" /><path d="M9660 7089 c-36 -16 -126 -60 -200 -97 -116 -58 -137 -72 -152 -102 -25 -52 -22 -83 18 -163 20 -39 38 -74 40 -76 8 -9 74 20 127 55 28 19 58 34 65 34 11 0 12 4 4 13 -6 6 -13 29 -17 50 -6 31 -2 49 24 101 27 55 38 67 88 95 94 51 103 62 87 105 -8 20 -7 20 -84 -15z" /><path d="M9658 6970 c-42 -22 -76 -65 -84 -107 -8 -39 51 -237 87 -293 32 -50 74 -87 138 -120 40 -20 45 -20 60 -5 15 15 13 26 -27 142 -30 86 -40 129 -33 136 13 13 -16 71 -32 64 -94 -38 -118 -46 -113 -39 3 5 35 21 71 36 42 18 65 34 65 45 0 9 -12 49 -27 89 -31 81 -41 86 -105 52z" /><path d="M9535 6708 c-48 -25 -75 -47 -75 -63 0 -6 24 -28 53 -48 28 -20 46 -37 39 -37 -7 0 -31 13 -54 30 l-41 30 -24 -32 c-30 -41 -42 -84 -50 -178 -5 -63 -1 -91 20 -165 35 -126 64 -246 82 -345 18 -91 46 -190 131 -452 29 -92 64 -211 76 -264 l22 -98 34 74 c18 41 103 179 189 309 166 249 207 330 249 486 14 53 41 132 59 175 46 108 81 250 60 250 -2 0 -30 -16 -60 -36 -31 -19 -102 -58 -158 -85 -145 -70 -183 -59 -201 61 -12 80 -17 100 -25 96 -4 -3 -24 -1 -45 4 l-38 8 6 -41 c12 -74 28 -114 65 -163 32 -42 50 -55 136 -92 60 -27 101 -39 103 -33 2 6 8 11 14 11 6 0 8 -7 4 -15 -3 -8 2 -19 12 -24 14 -9 15 -10 1 -11 -10 0 -27 -34 -53 -112 -66 -193 -104 -278 -168 -375 -34 -51 -66 -93 -71 -93 -9 0 -1 15 50 90 12 19 23 38 23 43 0 5 -22 30 -49 56 -88 86 -179 313 -196 491 -3 36 -8 77 -11 93 -3 15 -2 27 3 27 5 0 15 -44 21 -97 17 -148 46 -246 110 -373 43 -86 67 -122 99 -148 l42 -34 29 59 c16 32 55 130 85 218 l55 161 -87 33 c-82 33 -141 68 -169 101 -21 26 -50 96 -57 141 -10 60 -28 98 -66 139 -50 55 -88 120 -106 180 -8 30 -18 58 -22 62 -3 3 -24 -3 -46 -14z" /><path d="M10521 6523 c-29 -17 -46 -22 -50 -14 -10 15 -54 -17 -47 -34 3 -8 -1 -19 -9 -25 -18 -15 -26 -50 -12 -50 7 0 -6 -9 -29 -19 -38 -17 -42 -23 -56 -80 l-16 -62 37 7 c20 4 68 24 107 45 39 22 78 39 88 39 9 0 15 4 12 8 -2 4 7 7 22 7 15 -1 39 7 54 17 14 10 31 18 37 18 13 0 31 32 31 55 0 12 -6 15 -20 10 -22 -7 -26 5 -9 22 14 14 3 34 -16 27 -10 -4 -12 0 -8 15 5 19 2 21 -27 19 -17 -1 -34 -6 -36 -10 -3 -4 -13 -8 -22 -8 -15 1 -15 2 2 15 35 26 11 25 -33 -2z" /><path d="M10418 6196 c-48 -21 -121 -106 -105 -123 8 -7 71 23 86 41 37 45 117 59 171 31 39 -20 70 -82 70 -141 0 -42 -4 -51 -40 -86 -45 -42 -84 -49 -144 -24 -18 8 -39 10 -46 6 -36 -22 69 -75 127 -64 92 16 154 78 161 159 8 94 -29 158 -113 196 -45 21 -126 24 -167 5z" /><path d="M10340 6055 c-41 -19 -87 -39 -101 -44 -19 -7 -29 -20 -36 -50 -10 -39 -10 -41 13 -47 13 -3 64 -4 113 -3 78 4 93 7 115 28 16 15 26 35 26 53 0 38 -26 98 -42 98 -7 0 -47 -16 -88 -35z" /><path d="M9425 5939 c4 -74 7 -136 7 -139 0 -3 0 -23 -1 -45 l-1 -40 -695 2 -696 2 6 -22 c10 -34 71 -119 122 -171 80 -81 216 -135 432 -171 85 -14 147 -17 346 -13 173 3 248 8 259 17 10 9 8 -7 -10 -57 -36 -104 -44 -181 -27 -274 40 -233 186 -406 403 -479 48 -16 91 -22 165 -23 178 -1 298 44 410 158 157 158 221 385 165 586 -12 41 -26 80 -32 87 -13 17 -3 16 47 -2 56 -20 492 -14 620 9 198 35 342 102 446 209 47 48 93 123 84 138 -3 4 -306 7 -674 8 l-669 1 -30 -38 c-16 -20 -34 -47 -41 -59 -27 -53 -4 -152 51 -219 51 -62 73 -112 89 -206 45 -268 -135 -514 -407 -558 -100 -16 -232 21 -327 93 -123 92 -182 215 -182 377 1 112 23 185 85 282 22 34 43 71 45 83 2 11 13 65 24 120 l21 100 -6 -162 c-3 -89 -7 -172 -9 -185 -2 -13 -9 -134 -15 -271 -14 -281 -19 -258 73 -318 84 -55 153 -73 268 -72 108 0 146 13 249 83 l62 42 -6 102 c-4 55 -11 139 -16 186 -5 47 -12 113 -15 148 -13 120 -22 277 -18 288 2 7 0 15 -6 19 -6 3 -11 0 -11 -9 0 -8 -3 -16 -8 -18 -13 -5 -198 -290 -230 -355 -17 -34 -34 -80 -38 -103 -4 -24 -10 -38 -16 -32 -4 4 -29 85 -54 178 -24 93 -54 193 -65 223 -55 149 -143 477 -156 584 -3 20 -10 40 -15 43 -7 5 -8 -36 -3 -127z m1368 -259 l552 0 -27 -27 c-15 -15 -37 -28 -50 -29 -29 -3 -1041 -5 -1043 -1 -1 1 -5 17 -9 36 -5 27 -3 32 10 27 9 -3 264 -6 567 -6z m-1535 -27 l-3 -28 -522 -3 c-512 -2 -523 -2 -543 18 -11 11 -20 25 -20 30 0 7 189 10 546 10 l545 0 -3 -27z m-14 -90 c-16 -67 -60 -80 -104 -33 -15 17 -37 30 -48 30 -11 0 -30 -13 -42 -30 -28 -40 -65 -40 -87 -2 -13 23 -23 28 -51 27 -26 0 -37 -7 -48 -28 -19 -36 -50 -35 -72 3 -22 38 -75 43 -93 8 -25 -48 -62 -51 -84 -8 -9 17 -24 30 -34 30 -11 0 -33 -13 -49 -30 -17 -16 -35 -30 -40 -30 -6 0 -22 14 -35 30 -17 19 -35 30 -52 30 -17 0 -35 -11 -52 -30 -32 -39 -58 -38 -83 3 -22 36 -25 47 -11 47 5 0 12 -8 16 -18 3 -11 17 -24 31 -31 24 -10 26 -9 37 19 10 28 15 30 59 30 40 0 50 -4 64 -25 21 -31 51 -32 65 -2 16 35 75 36 91 2 6 -13 17 -26 24 -29 16 -6 44 19 44 40 0 12 12 14 50 13 40 -2 53 -7 65 -26 19 -28 45 -30 52 -3 4 17 14 20 54 20 27 0 52 0 57 0 4 0 8 -4 8 -10 1 -5 2 -14 3 -19 2 -13 28 -21 45 -15 8 3 17 15 20 27 5 22 8 23 94 18 6 -1 12 -7 12 -15 0 -14 21 -26 46 -26 7 0 20 14 29 30 19 37 27 39 19 3z m1214 -15 c6 -18 18 -28 30 -28 23 0 44 22 40 41 -2 11 10 14 46 13 38 -1 50 -5 52 -18 3 -20 23 -46 35 -46 16 0 38 31 33 45 -5 12 3 15 39 15 37 0 48 -4 61 -25 21 -32 39 -32 66 2 27 34 74 33 107 -4 25 -26 40 -23 52 10 6 17 17 21 56 22 39 0 49 -3 55 -20 18 -48 61 -51 65 -5 1 18 8 23 33 25 18 2 32 -1 32 -6 0 -5 -9 -9 -20 -9 -11 0 -20 -6 -20 -14 0 -8 -8 -24 -18 -36 -25 -31 -65 -21 -84 20 -10 24 -19 30 -45 30 -19 0 -33 -5 -33 -12 0 -20 -32 -48 -56 -48 -15 0 -26 9 -36 30 -15 36 -53 41 -63 10 -4 -11 -17 -27 -30 -36 -29 -19 -61 -5 -75 32 -14 35 -50 31 -75 -9 -14 -22 -28 -32 -45 -32 -17 0 -31 10 -45 32 -15 24 -28 32 -48 33 -16 0 -26 -4 -23 -9 3 -5 -4 -21 -15 -35 -28 -36 -59 -31 -79 11 -19 42 -49 43 -78 3 -13 -17 -32 -30 -44 -30 -24 0 -68 36 -68 57 0 20 24 16 38 -7 16 -27 46 -25 59 3 8 17 19 22 50 22 35 1 42 -3 51 -27z" /><path d="M5430 5712 c-14 -5 -13 -95 1 -126 7 -14 24 -29 40 -35 34 -12 437 -2 445 11 3 5 -2 18 -13 30 -12 14 -18 36 -18 72 l0 51 -222 0 c-123 0 -227 -1 -233 -3z" /><path d="M5919 5699 c-5 -10 -9 -31 -9 -48 0 -59 10 -60 344 -44 165 7 301 15 303 16 2 2 6 24 9 50 l7 46 -323 -2 c-293 -1 -322 -3 -331 -18z" /><path d="M6640 5710 l-45 -5 1 -49 c0 -41 5 -53 28 -73 15 -13 35 -22 44 -19 10 2 78 7 152 11 74 3 218 13 320 20 102 8 280 19 395 25 116 6 246 15 290 20 44 6 105 10 137 10 l58 0 -3 33 -3 32 -664 0 c-366 0 -685 -2 -710 -5z" /><path d="M11495 5710 c-3 -5 -2 -15 1 -23 3 -8 1 -18 -5 -22 -28 -16 -2 -23 117 -30 70 -3 204 -13 297 -21 499 -43 789 -64 876 -64 92 0 109 13 109 84 0 92 71 84 -705 84 -377 0 -687 -4 -690 -8z" /><path d="M12915 5681 c4 -20 10 -40 15 -45 10 -10 214 -22 428 -25 166 -2 182 2 182 48 0 57 7 56 -326 57 l-306 1 7 -36z" /><path d="M13564 5654 c0 -52 -4 -67 -20 -79 -18 -14 -18 -14 11 -15 17 0 123 -5 237 -10 148 -7 214 -7 231 1 27 12 47 64 47 123 0 30 -3 36 -22 37 -13 1 -127 3 -254 4 l-230 4 0 -65z" /><path d="M7909 5636 c-5 -4 -368 -31 -614 -46 -362 -21 -598 -41 -616 -50 -25 -14 -41 -47 -34 -69 3 -9 19 -30 35 -46 l29 -28 133 17 c73 10 266 39 428 66 413 67 625 99 697 107 72 7 86 14 77 36 -5 13 -19 17 -68 17 -35 0 -65 -2 -67 -4z" /><path d="M11472 5618 c-33 -33 -17 -38 163 -53 39 -4 201 -28 360 -55 325 -55 638 -100 733 -107 60 -5 64 -3 92 27 35 38 39 75 9 91 -12 6 -114 17 -228 25 -237 15 -551 40 -696 53 -55 6 -147 13 -205 16 -58 3 -130 8 -160 11 -37 3 -60 0 -68 -8z" /><path d="M12902 5566 c-12 -28 -22 -53 -22 -56 0 -3 55 -7 123 -8 67 -2 165 -7 217 -12 127 -13 247 -12 271 0 24 14 24 50 0 77 -18 19 -35 21 -188 27 -204 8 -366 17 -373 21 -3 2 -15 -20 -28 -49z" /><path d="M6270 5593 c-303 -15 -330 -22 -330 -85 0 -50 21 -52 286 -29 131 12 272 24 312 27 86 8 98 21 56 65 l-28 29 -115 -2 c-64 -1 -145 -3 -181 -5z" /><path d="M7985 5579 c-33 -5 -130 -21 -215 -35 -85 -14 -200 -31 -255 -39 -55 -7 -151 -23 -214 -35 -63 -11 -203 -34 -311 -50 -107 -16 -208 -32 -223 -35 -37 -10 -46 -48 -20 -83 25 -33 51 -38 106 -18 23 8 150 36 282 61 334 63 405 78 691 146 138 32 254 59 258 59 4 0 2 9 -4 20 -6 11 -16 19 -23 19 -7 -1 -39 -5 -72 -10z" /><path d="M11427 5556 c-16 -13 -6 -17 93 -40 61 -14 168 -37 238 -51 70 -14 206 -43 302 -65 96 -21 263 -56 370 -76 107 -20 212 -40 232 -44 33 -6 40 -4 67 24 17 18 31 38 31 44 0 29 -122 57 -355 83 -107 11 -295 42 -520 84 -107 20 -400 57 -435 55 -3 -1 -13 -7 -23 -14z" /><path d="M5660 5531 c-91 -3 -171 -10 -177 -14 -16 -10 -17 -58 -2 -90 23 -50 81 -57 259 -31 185 26 195 29 191 44 -2 8 -9 34 -15 58 -10 41 -11 42 -51 40 -22 -1 -114 -4 -205 -7z" /><path d="M7875 5489 c-320 -78 -354 -85 -680 -149 -170 -33 -320 -67 -332 -76 -13 -8 -23 -25 -23 -38 0 -29 36 -76 58 -76 16 0 143 36 372 105 80 24 370 104 600 165 109 29 253 71 258 75 6 5 -32 45 -43 44 -5 0 -100 -23 -210 -50z" /><path d="M13527 5505 c-9 -19 -17 -41 -17 -49 0 -15 133 -39 316 -57 133 -13 157 -8 174 37 31 80 7 90 -250 98 l-206 7 -17 -36z" /><path d="M11385 5516 c-18 -13 -18 -14 11 -28 16 -9 63 -23 104 -33 41 -10 93 -24 115 -32 45 -16 196 -57 450 -123 66 -17 195 -55 286 -85 92 -30 180 -55 196 -55 34 0 103 55 103 83 0 25 -23 33 -185 61 -177 32 -264 49 -401 82 -55 13 -157 35 -225 48 -204 41 -403 84 -419 91 -9 3 -24 -1 -35 -9z" /><path d="M6460 5485 c-74 -7 -197 -18 -273 -25 -75 -6 -156 -17 -180 -24 -38 -11 -42 -15 -40 -41 1 -16 11 -37 22 -48 19 -19 22 -19 247 12 202 28 384 58 392 66 3 2 -27 76 -31 74 -1 -1 -63 -7 -137 -14z" /><path d="M11338 5479 c-26 -15 -22 -24 15 -36 30 -10 92 -34 592 -228 110 -42 247 -95 305 -117 58 -22 118 -47 133 -55 26 -13 33 -12 75 9 40 19 47 28 50 55 2 24 -2 34 -17 43 -39 20 -286 98 -446 141 -88 23 -200 53 -250 66 -49 13 -126 34 -170 47 -44 14 -117 34 -163 46 -45 12 -85 26 -88 31 -7 11 -15 11 -36 -2z" /><path d="M12877 5461 l-15 -30 47 -10 c77 -16 228 -39 375 -57 135 -16 139 -16 165 3 16 13 27 31 29 51 3 28 0 31 -30 37 -49 8 -423 35 -495 35 -58 0 -62 -2 -76 -29z" /><path d="M8040 5455 c-74 -22 -237 -68 -575 -161 -93 -25 -234 -66 -312 -90 -78 -24 -148 -44 -156 -44 -8 0 -25 -9 -38 -19 l-24 -19 42 -40 c52 -50 88 -60 117 -34 31 28 55 39 184 84 146 50 379 133 412 146 14 6 88 34 165 63 228 84 315 121 309 130 -8 14 -42 10 -124 -16z" /><path d="M8122 5430 c-24 -11 -85 -35 -135 -54 -51 -19 -153 -58 -227 -86 -74 -29 -198 -74 -275 -101 -393 -139 -384 -134 -355 -187 23 -40 55 -38 161 9 52 23 137 59 189 81 287 121 733 335 725 348 -9 15 -35 12 -83 -10z" /><path d="M11277 5441 c-14 -5 13 -21 105 -65 68 -33 233 -113 368 -179 135 -65 299 -146 366 -178 133 -65 187 -75 218 -40 33 37 17 61 -59 93 -38 17 -88 36 -110 43 -59 20 -191 71 -450 173 -210 82 -385 150 -410 157 -5 2 -18 0 -28 -4z" /><path d="M8216 5422 c-10 -16 -709 -339 -918 -425 -35 -14 -35 -32 -2 -54 55 -35 87 -25 334 107 80 43 177 94 215 114 39 21 152 83 252 139 170 94 181 102 160 114 -26 15 -34 16 -41 5z" /><path d="M11242 5411 c-8 -5 57 -48 170 -116 101 -60 206 -123 233 -140 28 -18 91 -55 140 -82 50 -28 108 -61 130 -74 121 -68 148 -79 194 -79 27 0 56 7 70 16 l23 17 -67 38 c-36 22 -68 39 -70 39 -2 0 -120 57 -262 126 -503 246 -545 265 -561 255z" /><path d="M12823 5396 c-35 -23 -44 -60 -17 -70 9 -3 29 -6 46 -6 17 0 79 -9 137 -19 58 -11 167 -29 241 -41 l135 -21 23 27 c49 57 34 63 -253 104 -82 11 -179 27 -215 34 -60 11 -67 11 -97 -8z" /><path d="M13504 5393 c-4 -16 -15 -37 -25 -49 -19 -20 -19 -20 48 -33 38 -7 118 -24 178 -37 147 -32 156 -33 187 -22 32 11 42 36 33 79 -9 38 -26 44 -140 53 -49 4 -118 14 -153 22 -97 22 -120 19 -128 -13z" /><path d="M5840 5395 c-30 -7 -101 -18 -158 -25 -84 -11 -106 -17 -118 -34 -31 -44 -12 -89 38 -90 18 -1 38 -5 44 -8 6 -4 36 0 68 8 32 8 103 23 157 33 55 10 102 21 105 24 9 8 -61 108 -74 106 -4 -1 -32 -7 -62 -14z" /><path d="M6555 5394 c-38 -8 -161 -27 -272 -43 -191 -28 -253 -46 -253 -73 0 -17 53 -58 69 -54 18 6 572 106 584 106 8 0 -2 51 -12 61 -14 15 -50 16 -116 3z" /><path d="M11188 5393 c-10 -3 -18 -8 -18 -11 0 -4 46 -38 103 -76 56 -38 143 -99 192 -136 50 -36 132 -93 184 -125 51 -32 115 -76 142 -97 65 -51 114 -78 144 -78 36 0 75 18 75 34 0 18 -77 71 -230 158 -63 36 -189 110 -280 165 -217 131 -291 171 -312 166z" /><path d="M8230 5363 c-89 -52 -230 -128 -505 -276 -154 -83 -283 -155 -287 -161 -12 -17 33 -48 62 -43 78 14 165 58 297 148 38 25 160 107 273 181 113 75 214 145 224 157 19 21 19 21 0 21 -10 -1 -39 -13 -64 -27z" /><path d="M8285 5346 c-22 -18 -176 -124 -342 -235 -167 -111 -303 -206 -303 -211 0 -17 41 -31 73 -25 53 11 104 46 333 226 273 213 326 258 318 270 -10 17 -39 8 -79 -25z" /><path d="M11110 5371 c-22 -6 -8 -19 150 -143 96 -75 231 -182 300 -237 69 -56 140 -108 159 -117 40 -18 80 -15 95 8 15 25 -8 46 -141 131 -63 39 -140 91 -171 115 -59 44 -362 253 -365 251 -1 -1 -13 -4 -27 -8z" /><path d="M8299 5287 c-93 -79 -398 -318 -481 -379 -20 -15 -21 -18 -8 -31 31 -32 76 -25 143 21 89 60 491 443 475 453 -25 16 -44 7 -129 -64z" /><path d="M11037 5351 c-28 -6 -25 -10 103 -125 72 -65 187 -172 255 -237 l124 -119 49 0 c36 0 52 4 56 16 10 26 3 33 -139 148 -114 93 -414 326 -417 325 -2 -1 -16 -4 -31 -8z" /><path d="M8385 5273 c-38 -38 -143 -137 -232 -222 -187 -176 -200 -200 -101 -185 38 5 53 17 126 93 102 105 244 260 294 321 21 25 38 40 38 35 0 -11 -146 -182 -244 -285 -87 -91 -96 -104 -102 -135 -5 -27 -4 -28 32 -22 48 8 73 33 253 247 80 96 149 177 153 178 21 10 2 20 -44 25 -29 3 -64 9 -78 12 -21 5 -36 -5 -95 -62z" /><path d="M10948 5333 c-16 -2 -28 -7 -28 -10 0 -3 49 -58 108 -122 59 -64 118 -127 131 -141 13 -14 56 -64 97 -111 41 -48 85 -90 97 -93 39 -10 71 -6 96 13 l24 18 -39 43 c-62 68 -437 410 -448 409 -6 -1 -23 -4 -38 -6z" /><path d="M6450 5275 c-278 -53 -343 -69 -347 -81 -2 -6 15 -25 38 -43 51 -42 54 -42 370 42 l237 62 -27 33 c-15 17 -32 32 -37 31 -5 -1 -110 -20 -234 -44z" /><path d="M9097 5302 c-17 -19 -79 -231 -99 -339 -13 -72 -3 -93 43 -93 37 0 59 24 59 66 0 19 4 65 10 102 5 37 12 83 14 102 3 19 9 62 15 95 6 33 11 66 11 73 0 18 -35 15 -53 -6z" /><path d="M10368 5312 c-31 -4 -32 -10 -19 -62 14 -50 20 -99 31 -225 5 -61 14 -124 21 -139 11 -24 17 -27 43 -22 17 4 39 15 49 24 17 18 17 22 -4 113 -12 52 -25 114 -30 139 -17 88 -42 169 -53 172 -6 2 -23 2 -38 0z" /><path d="M10430 5309 c0 -4 8 -35 19 -70 10 -35 31 -120 46 -189 33 -147 54 -190 94 -190 15 0 36 9 45 19 17 19 15 28 -48 224 l-67 205 -44 4 c-25 2 -45 0 -45 -3z" /><path d="M10849 5312 c-18 -8 -12 -17 190 -292 114 -154 140 -180 181 -180 28 0 60 27 60 51 0 8 -48 66 -106 129 -57 63 -142 157 -186 208 -81 91 -98 101 -139 84z" /><path d="M12756 5284 c-14 -18 -26 -35 -26 -37 0 -3 24 -7 53 -11 28 -4 77 -13 107 -21 90 -23 343 -75 366 -75 19 0 51 27 68 57 13 23 -73 50 -214 68 -30 3 -89 13 -130 21 -41 9 -103 19 -137 23 -61 7 -61 7 -87 -25z" /><path d="M8514 5178 c-266 -322 -253 -301 -188 -314 37 -7 65 18 163 146 66 87 201 283 201 294 0 3 -15 6 -33 6 -30 0 -43 -11 -143 -132z" /><path d="M8654 5223 c-32 -49 -88 -128 -124 -178 -101 -137 -103 -140 -90 -165 10 -18 18 -21 42 -16 17 3 39 16 50 29 50 57 238 379 238 407 0 5 -13 10 -30 10 -26 0 -36 -10 -86 -87z" /><path d="M8761 5243 c-18 -36 -70 -128 -117 -205 -46 -76 -84 -140 -84 -143 0 -2 18 -10 40 -16 31 -10 43 -9 55 1 19 16 126 236 202 418 3 8 -6 12 -29 12 -32 0 -36 -4 -67 -67z" /><path d="M8815 5173 c-32 -76 -68 -160 -80 -188 -34 -76 -35 -83 -19 -96 23 -19 66 -14 85 10 19 23 80 173 125 309 15 45 31 82 35 82 6 0 -6 -38 -97 -293 -33 -91 -28 -109 30 -118 61 -10 70 6 116 191 22 91 47 180 55 198 8 18 15 35 15 37 0 3 -46 5 -103 5 l-103 0 -59 -137z" /><path d="M10590 5133 c66 -207 84 -246 117 -264 31 -17 77 -1 81 27 2 12 -29 85 -68 163 -39 78 -81 166 -95 196 -22 51 -26 55 -58 55 l-35 0 58 -177z" /><path d="M10620 5302 c0 -5 45 -99 100 -209 109 -219 128 -242 184 -226 17 5 32 17 34 27 4 16 -88 193 -180 346 l-42 70 -48 0 c-26 0 -48 -4 -48 -8z" /><path d="M10736 5298 c5 -7 21 -32 36 -55 16 -23 49 -81 75 -130 58 -110 130 -224 151 -240 29 -23 112 -14 112 12 0 7 -40 68 -90 136 -49 68 -115 161 -146 207 -57 82 -58 82 -101 82 -33 0 -42 -3 -37 -12z" /><path d="M13435 5288 c-4 -13 -18 -38 -32 -56 -17 -23 -20 -33 -11 -36 7 -2 58 -13 113 -26 55 -12 127 -28 160 -36 33 -8 71 -17 85 -20 36 -8 80 28 80 66 0 48 -19 55 -280 110 -112 23 -108 23 -115 -2z" /><path d="M5870 5263 c-206 -39 -250 -61 -236 -118 8 -30 56 -49 109 -42 23 4 92 20 152 36 61 17 122 31 138 31 15 0 27 3 27 8 0 4 -17 30 -37 57 l-38 50 -115 -22z" /><path d="M6650 5216 c-47 -13 -161 -43 -254 -67 -107 -27 -170 -48 -174 -58 -3 -8 8 -26 26 -43 34 -29 77 -37 111 -18 10 5 114 39 231 75 116 36 215 67 219 70 4 2 6 18 3 35 -4 27 -8 30 -41 29 -20 0 -74 -11 -121 -23z" /><path d="M12676 5208 l-17 -23 93 -28 c51 -16 155 -49 231 -73 92 -30 148 -43 166 -39 32 7 84 52 78 68 -2 7 -30 18 -63 25 -32 7 -126 28 -209 47 -82 18 -175 36 -207 40 -51 6 -58 4 -72 -17z" /><path d="M13340 5159 c-7 -13 -19 -28 -27 -32 -24 -14 -5 -25 110 -61 242 -75 221 -71 263 -50 65 33 71 79 13 96 -63 18 -250 58 -296 64 -47 6 -52 4 -63 -17z" /><path d="M5938 5137 c-71 -18 -135 -41 -147 -51 -27 -24 -27 -60 0 -87 17 -17 30 -20 72 -16 54 5 268 74 287 93 7 7 -2 23 -32 52 -23 23 -44 42 -47 41 -4 0 -63 -15 -133 -32z" /><path d="M12630 5155 c-7 -8 -21 -15 -31 -15 -20 0 -24 -16 -10 -39 14 -21 381 -164 423 -165 44 0 91 31 96 62 3 17 -9 25 -75 50 -95 36 -360 122 -378 122 -7 0 -18 -7 -25 -15z" /><path d="M6695 5123 c-60 -19 -155 -48 -210 -66 -130 -40 -138 -48 -92 -91 47 -44 81 -52 113 -27 14 11 62 32 107 47 173 57 287 105 287 123 0 17 -58 52 -83 50 -7 0 -61 -16 -122 -36z" /><path d="M12528 5060 c-9 -17 -24 -30 -33 -30 -30 0 -14 -18 32 -35 26 -10 102 -44 170 -77 74 -34 137 -58 156 -58 42 1 119 41 109 57 -10 15 -88 50 -245 108 -67 26 -132 50 -145 56 -13 5 -24 9 -25 9 -1 0 -10 -14 -19 -30z" /><path d="M13236 5061 c-15 -16 -44 -32 -63 -36 -45 -8 -38 -26 18 -40 24 -7 86 -28 136 -49 112 -45 182 -55 216 -33 53 34 36 85 -35 110 -24 9 -81 29 -126 46 -46 17 -91 31 -101 31 -9 0 -30 -13 -45 -29z" /><path d="M6852 5060 c-24 -11 -100 -41 -170 -67 -176 -65 -200 -84 -146 -119 39 -26 100 -20 184 19 41 19 118 52 170 73 52 21 98 43 102 48 9 14 -52 65 -77 65 -11 0 -39 -9 -63 -19z" /><path d="M6045 5020 c-84 -28 -113 -42 -122 -60 -18 -36 2 -68 50 -81 53 -14 85 -9 187 33 106 44 110 46 138 62 l23 13 -32 7 c-17 3 -48 19 -69 36 -21 16 -44 29 -51 28 -8 0 -63 -18 -124 -38z" /><path d="M7003 5006 c-4 -7 -55 -32 -112 -55 -157 -63 -201 -89 -201 -116 0 -7 16 -20 35 -30 40 -19 82 -14 130 15 17 10 82 39 145 65 63 26 119 50 123 54 4 5 3 20 -4 34 -9 20 -20 27 -41 27 -16 0 -38 5 -48 10 -14 7 -21 6 -27 -4z" /><path d="M12390 4989 c0 -12 -10 -24 -27 -30 l-28 -11 50 -19 c293 -115 369 -136 393 -106 19 22 -20 51 -148 110 -69 32 -132 62 -140 66 -9 5 -35 9 -58 9 -35 1 -42 -2 -42 -19z" /><path d="M13121 4956 c-13 -14 -43 -34 -67 -46 -24 -11 -44 -24 -44 -30 0 -5 -7 -7 -16 -3 -9 3 -19 1 -23 -5 -3 -5 -33 -19 -66 -30 -67 -23 -80 -44 -38 -60 140 -56 170 -63 247 -63 81 1 106 10 106 41 0 18 -27 33 -143 81 -32 13 -54 25 -48 27 5 2 55 -15 110 -37 100 -40 125 -45 192 -43 39 2 89 39 89 67 0 21 -49 49 -147 85 -124 44 -125 45 -152 16z" /><path d="M6295 4952 c-6 -5 -52 -24 -103 -43 -51 -18 -100 -41 -108 -50 -41 -45 50 -91 135 -68 56 14 221 69 238 78 19 10 2 25 -66 59 -68 34 -81 37 -96 24z" /><path d="M7143 4934 c-7 -6 -47 -26 -90 -44 -200 -82 -215 -95 -148 -127 29 -14 43 -15 83 -6 60 14 341 135 342 147 0 5 -3 7 -6 3 -4 -3 -23 1 -43 10 -51 22 -125 32 -138 17z" /><path d="M12261 4932 c-34 -3 -81 -28 -81 -42 0 -19 312 -130 365 -130 36 0 95 28 95 46 0 5 -24 18 -52 28 -29 11 -96 37 -148 59 -95 40 -116 45 -179 39z" /><path d="M7300 4865 c-183 -70 -229 -97 -209 -121 28 -34 98 -26 189 21 25 12 81 38 125 56 l79 33 -44 14 c-25 8 -47 18 -50 23 -3 4 -43 -8 -90 -26z" /><path d="M7530 4864 c-25 -13 -75 -35 -112 -49 -89 -35 -117 -57 -102 -82 17 -27 83 -20 152 16 31 17 85 45 120 63 61 32 77 48 47 48 -9 0 -18 6 -21 13 -7 19 -34 16 -84 -9z" /><path d="M12033 4875 c-10 -7 -16 -15 -13 -18 20 -19 262 -128 294 -132 48 -7 96 8 96 30 0 23 -210 116 -275 121 -22 2 -50 5 -62 8 -11 2 -29 -2 -40 -9z" /><path d="M8813 4864 c-5 -14 -17 -16 -74 -10 -41 4 -70 2 -74 -4 -9 -15 -47 -12 -72 5 -18 13 -25 13 -61 -3 -23 -9 -43 -25 -46 -34 -2 -10 -10 -18 -16 -18 -9 0 -10 3 -1 14 9 11 7 15 -10 19 -15 4 -31 -4 -56 -29 -19 -20 -38 -33 -41 -29 -3 3 11 19 31 36 31 25 35 34 26 45 -10 12 -15 12 -31 -3 -14 -12 -32 -16 -61 -14 -42 4 -95 4 -152 1 -16 -1 -34 5 -39 13 -7 12 -13 12 -35 1 -43 -21 -82 -24 -113 -8 -24 13 -35 13 -66 3 -20 -7 -44 -13 -52 -14 -25 -1 -85 17 -91 27 -4 6 -18 4 -37 -6 -17 -9 -44 -16 -59 -16 -32 -1 -143 -60 -158 -85 -8 -12 -5 -20 9 -31 34 -24 79 -16 184 36 56 28 104 50 107 50 3 0 -4 -9 -15 -20 -11 -11 -27 -20 -35 -20 -22 0 -41 -40 -24 -52 20 -13 98 -4 144 17 22 11 47 22 56 26 13 6 16 3 12 -11 -12 -46 84 -45 149 2 28 19 28 19 28 -1 0 -47 71 -50 142 -5 46 29 51 30 43 5 -13 -41 66 -51 107 -14 15 13 19 13 40 -1 31 -22 48 -20 88 9 38 28 60 32 60 10 0 -8 7 -15 15 -15 8 0 15 5 15 11 0 6 15 0 33 -14 l34 -25 43 24 c37 21 45 23 52 10 4 -8 24 -20 42 -26 35 -11 55 -5 107 32 14 9 23 7 49 -15 24 -21 42 -27 78 -27 43 0 113 18 127 32 7 7 -26 80 -40 90 -7 5 -7 8 0 8 6 0 3 5 -5 10 -23 15 -66 12 -80 -5 -17 -20 -38 -19 -83 5 -20 11 -37 16 -37 10 0 -5 -10 -14 -21 -21 -15 -8 -19 -8 -15 0 5 7 -8 11 -39 11 -31 0 -47 5 -51 15 -8 20 -23 19 -31 -1z" /><path d="M10375 4870 c4 -6 -7 -10 -25 -10 -25 0 -33 -6 -47 -35 -16 -34 -16 -36 5 -58 30 -32 113 -60 154 -52 18 4 43 18 55 33 l22 26 29 -27 c43 -41 107 -34 125 15 3 9 11 7 28 -9 52 -47 115 -56 129 -18 11 29 17 30 39 11 9 -8 35 -16 59 -20 23 -3 51 -10 63 -16 11 -6 34 -8 50 -5 24 6 30 11 26 27 -4 15 -2 18 11 13 47 -20 109 -35 144 -35 31 0 38 4 38 19 0 11 -12 29 -27 40 -28 21 -28 21 -3 12 14 -5 50 -21 80 -35 57 -27 114 -34 125 -16 4 6 -1 22 -10 37 -19 28 -15 27 50 -17 54 -37 113 -46 143 -22 22 17 23 52 1 52 -4 0 -20 11 -35 25 -15 14 -35 25 -46 25 -10 0 -29 7 -42 15 -22 15 -27 14 -57 -4 -42 -26 -62 -26 -116 -2 -35 17 -44 17 -53 6 -7 -8 -22 -17 -33 -21 -12 -4 -26 -13 -32 -20 -7 -9 -15 -11 -25 -4 -13 9 -13 10 0 10 8 0 -5 11 -29 24 -39 20 -47 22 -70 10 -14 -8 -33 -14 -41 -14 -8 -1 -2 -8 13 -16 16 -9 27 -17 25 -20 -7 -6 -68 19 -68 28 0 4 -8 8 -18 8 -11 0 -27 9 -37 20 -16 17 -20 18 -38 5 -26 -18 -70 -19 -96 -3 -15 9 -25 9 -46 0 -37 -17 -95 -15 -116 4 -16 15 -19 14 -40 -5 -24 -22 -71 -20 -101 7 -15 13 -19 12 -33 -1 -35 -36 -133 -29 -119 8 4 8 1 15 -6 15 -6 0 -8 -4 -5 -10z" /><path d="M6470 4859 c-13 -7 -109 -44 -163 -62 -9 -4 -22 -18 -29 -32 -10 -22 -9 -27 8 -39 26 -20 77 -28 120 -20 34 6 253 80 261 88 9 9 -31 29 -66 31 -21 2 -56 12 -77 23 -24 12 -45 16 -54 11z" /><path d="M11830 4850 l-25 -19 107 -51 c107 -50 203 -78 232 -67 24 9 19 43 -8 65 -14 10 -45 27 -70 36 -25 10 -46 21 -46 26 0 4 -30 10 -67 12 -38 3 -75 8 -83 11 -8 4 -26 -2 -40 -13z" /><path d="M11607 4841 c-18 -6 -18 -7 0 -22 64 -54 155 -101 206 -106 60 -6 97 7 97 35 0 24 -113 76 -196 91 -68 12 -81 13 -107 2z" /><path d="M6600 4751 c-93 -33 -100 -38 -100 -60 0 -26 79 -55 122 -46 54 12 262 100 244 103 -9 2 -16 8 -16 13 0 12 -41 11 -60 -1 -8 -5 -19 -5 -25 0 -26 22 -91 19 -165 -9z" /><path d="M12755 4770 c-11 -5 -37 -9 -57 -9 -21 -1 -38 -5 -38 -11 0 -5 -10 -10 -22 -10 -34 -1 -10 -12 111 -54 84 -30 112 -35 150 -30 55 7 81 20 81 38 0 19 -17 30 -91 60 -68 27 -100 31 -134 16z" /><path d="M7010 4734 c-15 -8 -38 -11 -57 -8 -18 4 -41 3 -50 -1 -10 -4 -25 -9 -33 -10 -8 -2 -37 -10 -63 -18 -127 -40 -108 -107 26 -92 58 6 89 17 204 72 61 29 62 30 38 41 -14 6 -25 16 -25 22 0 13 -9 12 -40 -6z" /><path d="M11942 4722 c-10 -10 -27 -22 -38 -26 -18 -7 -17 -8 6 -26 75 -58 220 -115 275 -108 39 4 54 31 32 56 -22 24 -92 59 -137 68 -19 3 -54 17 -78 30 -41 23 -43 23 -60 6z" /><path d="M7254 4720 c-5 -5 -36 -12 -69 -16 -38 -4 -87 -19 -133 -41 -60 -29 -73 -39 -70 -57 3 -19 9 -21 63 -21 48 1 77 9 145 39 106 48 138 69 119 74 -8 3 -21 11 -30 18 -10 9 -19 10 -25 4z" /><path d="M8590 4720 c0 -18 -78 -34 -114 -23 -32 10 -36 8 -95 -47 -62 -57 -74 -83 -45 -94 53 -20 102 3 196 94 35 33 66 60 71 60 12 0 -36 -59 -49 -59 -6 -1 -21 -12 -34 -26 -28 -30 -20 -55 23 -66 47 -13 99 7 138 50 41 46 58 54 34 17 -29 -44 12 -85 69 -70 32 8 109 91 102 109 -3 8 0 16 7 19 7 3 0 3 -15 1 -14 -2 -42 5 -61 15 -30 16 -37 17 -47 5 -19 -23 -52 -22 -109 2 -59 25 -71 28 -71 13z" /><path d="M10510 4709 c-48 -18 -236 -28 -276 -14 -17 5 -23 2 -28 -19 -3 -14 -13 -26 -21 -26 -8 0 -15 -5 -15 -11 0 -5 -4 -8 -8 -5 -5 3 -22 -8 -37 -24 -16 -17 -34 -30 -40 -30 -7 0 -19 -8 -28 -18 -15 -17 -14 -26 18 -138 51 -172 83 -294 90 -336 5 -35 9 -38 38 -38 60 0 63 9 43 96 -10 43 -41 137 -68 208 -60 156 -79 216 -68 216 4 0 22 -44 40 -97 18 -54 41 -115 51 -135 11 -21 32 -89 49 -150 l29 -113 31 3 c76 6 87 40 46 141 -27 68 -81 239 -91 291 -3 19 -9 43 -11 52 -11 37 99 -15 169 -81 95 -89 153 -196 233 -435 47 -138 76 -196 132 -258 31 -35 98 -78 127 -84 6 -1 37 -7 69 -14 68 -14 178 -7 230 15 87 37 119 182 59 263 -50 68 -150 94 -209 56 -55 -36 -70 -122 -33 -183 11 -18 19 -35 17 -36 -2 -2 -26 1 -53 6 -112 21 -170 102 -245 344 -75 239 -142 337 -312 455 -43 29 -77 55 -75 56 8 9 103 -29 142 -56 58 -40 100 -39 100 2 l-1 28 31 -29 c40 -39 80 -49 105 -26 26 24 25 35 -6 73 -25 29 -32 32 -85 32 -33 0 -59 3 -59 8 0 4 -8 12 -17 18 -13 8 -30 6 -63 -7z" /><path d="M7445 4705 c-16 -8 -43 -14 -58 -15 -27 0 -152 -54 -162 -70 -2 -4 4 -15 15 -25 31 -28 129 -17 212 24 37 18 75 42 84 52 16 18 16 19 -5 19 -12 0 -19 4 -16 10 3 6 2 10 -4 10 -5 0 -15 2 -23 4 -7 2 -26 -2 -43 -9z" /><path d="M7655 4699 c-27 -10 -59 -19 -70 -19 -11 0 -40 -18 -65 -39 -40 -35 -43 -41 -30 -56 30 -37 155 0 232 68 l37 33 -27 16 c-25 15 -31 15 -77 -3z" /><path d="M8939 4697 c-48 -41 -63 -93 -34 -117 21 -18 54 -6 98 35 37 34 97 49 97 25 0 -5 -4 -10 -9 -10 -13 0 -172 -149 -212 -200 -56 -69 -104 -163 -147 -290 -22 -63 -49 -136 -60 -162 -24 -53 -83 -123 -123 -143 -25 -13 -109 -36 -109 -30 0 1 7 19 15 38 32 77 9 158 -51 183 -87 36 -188 -19 -214 -116 -10 -38 -9 -53 4 -96 33 -104 98 -139 247 -132 116 5 218 52 277 126 43 55 91 161 128 285 27 91 91 221 141 287 55 72 214 207 232 196 11 -7 -22 -134 -78 -296 -65 -191 -64 -206 16 -217 l38 -5 26 104 c38 150 109 389 124 418 12 23 9 28 -39 77 -50 51 -81 64 -102 43 -6 -6 -43 -14 -82 -17 -61 -5 -76 -3 -107 16 -45 26 -44 26 -76 -2z" /><path d="M10710 4710 c0 -5 10 -19 23 -32 12 -13 31 -34 42 -48 36 -46 76 -70 114 -70 63 0 80 38 36 80 -14 13 -23 26 -20 28 3 3 27 -16 54 -41 52 -49 113 -74 156 -63 35 9 42 32 18 59 -42 46 -35 50 12 8 57 -50 127 -85 154 -76 30 9 34 36 11 67 -21 28 -13 40 9 14 28 -34 114 -68 174 -69 88 -3 86 9 -13 90 -48 39 -143 59 -190 39 -30 -12 -31 -14 -14 -24 17 -10 17 -11 2 -12 -9 0 -19 4 -22 9 -4 5 -29 12 -56 16 -27 4 -53 11 -56 16 -3 6 -16 3 -31 -7 -21 -13 -39 -15 -95 -10 -38 4 -83 12 -99 18 -22 8 -33 8 -38 0 -11 -18 -83 -17 -118 1 -36 19 -53 21 -53 7z" /><path d="M11673 4713 c-24 -9 -13 -22 60 -69 125 -82 242 -108 242 -56 0 15 -10 29 -30 40 -16 9 -36 25 -43 35 -10 12 -27 17 -65 17 -30 0 -70 9 -96 20 -45 21 -48 22 -68 13z" /><path d="M12416 4707 c-16 -12 -11 -17 55 -47 99 -44 165 -61 214 -53 81 12 86 43 13 77 -34 15 -79 26 -123 29 -40 3 -62 1 -50 -4 20 -8 20 -8 0 -8 -12 -1 -27 5 -34 12 -11 10 -12 9 -6 -1 6 -11 3 -12 -13 -3 -27 14 -34 14 -56 -2z" /><path d="M7900 4694 c-19 -7 -49 -13 -67 -13 -43 -1 -71 -13 -113 -49 -30 -26 -33 -32 -21 -46 30 -36 167 -11 218 39 7 8 25 23 39 34 22 17 24 23 14 36 -14 17 -22 17 -70 -1z" /><path d="M8065 4695 c-16 -8 -39 -14 -50 -15 -12 0 -38 -18 -59 -39 -33 -34 -36 -42 -27 -60 10 -17 21 -21 59 -21 55 1 91 19 157 77 l47 43 -26 10 c-48 18 -71 19 -101 5z" /><path d="M8236 4697 c-10 -7 -41 -32 -67 -56 -40 -36 -47 -47 -38 -62 7 -15 21 -19 58 -19 51 0 83 18 165 93 34 32 37 38 18 34 -13 -3 -39 1 -57 9 -41 17 -54 17 -79 1z" /><path d="M11474 4699 c-9 -15 23 -42 123 -104 65 -40 173 -42 173 -2 0 7 -28 30 -62 51 -53 33 -71 39 -110 37 -27 -1 -60 5 -77 14 -36 18 -38 18 -47 4z" /><path d="M12161 4692 c-10 -8 -12 -15 -5 -18 6 -2 35 -20 65 -39 65 -43 106 -55 181 -55 68 0 88 7 88 30 0 21 -16 35 -50 45 -14 4 -32 14 -41 21 -9 9 -33 13 -61 11 -27 -1 -44 1 -41 7 3 5 -6 7 -20 4 -15 -3 -24 -2 -22 2 8 13 -77 6 -94 -8z" /><path d="M9362 4583 c-24 -46 -158 -521 -149 -529 3 -3 21 -7 39 -7 33 -2 33 -1 46 58 22 98 102 429 108 444 2 8 7 12 10 9 3 -3 -22 -119 -56 -258 -33 -139 -59 -255 -56 -257 2 -3 22 -7 44 -10 40 -5 41 -5 51 33 5 22 19 89 31 149 12 61 30 154 41 207 10 53 19 99 19 101 0 5 -107 77 -114 77 -3 0 -9 -8 -14 -17z" /><path d="M9993 4530 c-13 -5 -23 -13 -23 -18 0 -4 16 -89 35 -187 20 -99 38 -203 41 -231 4 -29 9 -56 13 -61 3 -5 26 -7 50 -5 l44 4 -6 57 c-5 57 -116 452 -126 450 -3 0 -16 -4 -28 -9z" /><path d="M9506 4503 c-15 -49 -96 -466 -91 -473 3 -4 23 -10 45 -12 47 -4 44 -11 60 122 5 47 18 148 29 225 10 77 18 140 17 141 -1 1 -13 4 -28 8 -20 5 -28 2 -32 -11z" /><path d="M9912 4503 c-37 -15 -36 9 -2 -218 11 -71 26 -164 33 -205 l13 -75 35 3 c19 2 38 7 42 12 10 9 -4 111 -44 315 -37 191 -35 186 -77 168z" /><path d="M9576 4458 c-3 -24 -14 -110 -25 -193 -31 -230 -32 -255 -17 -255 8 0 27 -3 43 -6 l30 -6 7 134 c4 73 11 180 17 237 5 57 6 107 2 111 -4 4 -18 11 -30 14 -19 6 -22 3 -27 -36z" /><path d="M9641 4293 c-6 -109 -14 -219 -17 -245 l-6 -48 46 0 46 0 0 240 c0 201 -2 240 -14 240 -8 0 -21 2 -29 5 -11 5 -16 -28 -26 -192z" /><path d="M9730 4240 c0 -237 0 -241 22 -249 11 -4 32 -5 46 -3 l25 5 -7 101 c-4 56 -13 164 -19 241 l-12 140 -27 3 -28 3 0 -241z" /><path d="M9806 4471 c-3 -5 -4 -28 -1 -52 2 -24 12 -128 21 -231 l17 -188 49 0 c26 0 48 4 48 9 0 6 -9 56 -20 113 -16 86 -50 322 -50 350 0 11 -58 10 -64 -1z" /><path d="M10360 4055 c-14 -8 -33 -14 -42 -15 -10 0 -18 -1 -18 -2 1 -34 52 -233 62 -239 20 -13 41 -11 66 7 20 14 22 22 17 74 -6 80 -35 190 -49 190 -6 -1 -22 -7 -36 -15z" /><path d="M9046 3955 c-20 -56 -36 -104 -36 -108 0 -3 10 -15 22 -27 30 -28 64 -26 84 6 15 22 54 160 54 190 0 7 -20 18 -44 26 l-44 15 -36 -102z" /><path d="M9176 3953 c-10 -43 -21 -91 -26 -106 -12 -37 2 -65 36 -73 38 -10 51 11 69 101 21 113 20 132 -9 139 -13 3 -31 8 -39 12 -11 4 -18 -12 -31 -73z" /><path d="M10224 4019 l-41 -10 19 -87 c34 -158 29 -147 73 -147 40 0 40 0 43 42 3 38 -22 185 -34 205 -6 9 -4 9 -60 -3z" /><path d="M9289 4008 c0 -1 -2 -16 -4 -33 -2 -16 -9 -68 -16 -114 -12 -82 -12 -84 10 -102 27 -22 45 -24 58 -6 10 13 49 235 42 241 -6 5 -89 19 -90 14z" /><path d="M10110 3999 c-13 -6 -26 -11 -27 -13 -4 -4 25 -191 33 -219 9 -30 42 -41 71 -22 23 16 25 21 20 69 -3 28 -13 84 -22 124 -18 76 -24 81 -75 61z" /><path d="M9396 3978 c-7 -25 -26 -173 -26 -203 0 -37 16 -55 47 -55 39 0 59 31 67 101 3 35 9 88 12 117 l6 52 -51 0 c-33 0 -53 -5 -55 -12z" /><path d="M9516 3948 c-31 -208 -29 -230 15 -241 41 -11 55 21 63 143 7 123 5 130 -46 130 -23 0 -28 -5 -32 -32z" /><path d="M9977 3973 c-14 -4 -16 -12 -12 -36 3 -18 9 -70 15 -117 10 -87 23 -110 62 -110 16 0 58 36 58 51 0 8 -28 162 -35 197 -4 17 -12 22 -38 21 -17 -1 -40 -3 -50 -6z" /><path d="M9615 3929 c-3 -24 -5 -80 -3 -124 3 -75 5 -81 30 -92 58 -28 78 10 78 147 0 91 -2 100 -19 100 -10 0 -32 3 -49 6 -30 6 -31 5 -37 -37z" /><path d="M9882 3963 c-41 -4 -43 -6 -38 -31 3 -15 8 -67 12 -117 3 -49 11 -96 16 -102 15 -18 52 -16 78 5 21 17 21 19 10 127 -12 111 -16 126 -28 123 -4 -1 -26 -3 -50 -5z" /><path d="M9730 3842 c0 -103 3 -121 18 -135 24 -22 44 -21 72 1 22 17 22 22 15 135 l-7 117 -49 0 -49 0 0 -118z" /><path d="M8983 3783 c-5 -21 -22 -77 -36 -126 -15 -48 -24 -93 -21 -101 8 -20 69 -50 87 -43 26 10 48 52 68 129 27 106 26 111 -26 138 -25 13 -45 27 -45 32 0 22 -17 4 -27 -29z" /><path d="M10456 3782 c-3 -5 -18 -13 -33 -17 -51 -12 -53 -20 -32 -98 11 -40 31 -96 44 -124 28 -61 56 -70 95 -28 29 30 24 65 -24 183 -37 91 -41 98 -50 84z" /><path d="M9097 3637 c-30 -124 -33 -147 -15 -165 16 -16 53 -15 71 2 8 8 24 59 37 113 12 54 24 106 26 115 3 11 -5 22 -25 32 -59 31 -63 26 -94 -97z" /><path d="M10319 3731 c-48 -15 -71 -32 -64 -48 3 -9 15 -59 26 -112 12 -53 25 -104 30 -113 19 -36 109 -10 109 30 0 23 -64 252 -70 251 -3 0 -17 -4 -31 -8z" /><path d="M9235 3706 c-12 -37 -55 -231 -55 -250 0 -29 18 -46 50 -46 45 0 60 29 83 159 11 66 18 124 14 127 -13 14 -88 22 -92 10z" /><path d="M9350 3696 c0 -4 -9 -63 -20 -132 -21 -132 -19 -153 20 -174 20 -11 63 0 75 20 9 14 45 253 39 261 -2 4 -20 9 -41 12 -21 3 -46 8 -55 12 -10 4 -18 4 -18 1z" /><path d="M10158 3693 c-33 -5 -33 -1 -8 -143 11 -68 26 -120 36 -131 22 -25 66 -24 89 1 18 19 17 24 -11 150 -32 143 -25 135 -106 123z" /><path d="M9489 3677 c-1 -1 -9 -58 -19 -127 -21 -152 -13 -179 52 -180 38 0 55 31 62 115 4 39 9 94 12 123 l5 52 -30 0 c-16 0 -41 4 -55 10 -14 5 -27 8 -27 7z" /><path d="M10047 3670 c-20 -4 -39 -9 -41 -11 -2 -2 3 -60 11 -129 16 -135 29 -163 71 -158 14 2 34 15 44 29 18 24 19 33 9 100 -20 129 -32 179 -44 178 -7 -1 -29 -5 -50 -9z" /><path d="M9623 3652 c-5 -4 -13 -64 -17 -134 -7 -122 -6 -127 15 -147 28 -26 70 -27 92 -3 14 15 17 42 17 150 l0 132 -38 -2 c-22 0 -43 2 -48 5 -6 3 -15 3 -21 -1z" /><path d="M9959 3656 c-3 -3 -24 -6 -47 -7 l-42 -3 0 -40 c0 -23 5 -81 10 -131 7 -74 13 -93 31 -108 38 -31 99 4 99 57 0 73 -24 236 -35 236 -6 0 -14 -2 -16 -4z" /><path d="M9750 3503 l5 -148 28 -9 c23 -8 31 -6 50 12 18 19 22 36 25 100 2 42 0 102 -5 132 l-8 55 -50 3 -50 3 5 -148z" /></g></svg>