<?xml version="1.0" encoding="UTF-8" standalone="no" ?>
<!DOCTYPE svg PUBLIC "-//W3C//DTD SVG 1.1//EN" "http://www.w3.org/Graphics/SVG/1.1/DTD/svg11.dtd">
<svg xmlns="http://www.w3.org/2000/svg" xmlns:xlink="http://www.w3.org/1999/xlink" version="1.1"  viewBox="150 100 650 2500" xml:space="preserve">
<desc>Created with Fabric.js 5.2.4</desc>
<defs>
</defs>
<g transform="matrix(1 0 0 1 540 540)" id="003215dc-daac-4148-9a81-eaf279d126ea"  >
<rect style="stroke: none; stroke-width: 1; stroke-dasharray: none; stroke-linecap: butt; stroke-dashoffset: 0; stroke-linejoin: miter; stroke-miterlimit: 4; fill: rgb(255,255,255); fill-rule: nonzero; opacity: 1; visibility: hidden;" vector-effect="non-scaling-stroke"  x="-540" y="-540" rx="0" ry="0" width="1080" height="1080" />
</g>
<g transform="matrix(1 0 0 1 540 540)" id="04d77b1b-d780-4073-8d73-d0b24dc3d5e9"  >
</g>
<g transform="matrix(0.09 0 0 -0.09 467.88 127.44)"  >
<path style="stroke: none; stroke-width: 1; stroke-dasharray: none; stroke-linecap: butt; stroke-dashoffset: 0; stroke-linejoin: miter; stroke-miterlimit: 4; fill: rgb(255,255,255); fill-rule: nonzero; opacity: 1;" vector-effect="non-scaling-stroke"  transform=" translate(-5144.5, -7785)" d="M 4812 7788 L 4815 7685 L 5148 7682 L 5480 7680 L 5480 7785 L 5480 7890 L 5145 7890 L 4809 7890 L 4812 7788 z M 5450 7785 L 5450 7700 L 5145 7700 L 4840 7700 L 4840 7785 L 4840 7870 L 5145 7870 L 5450 7870 L 5450 7785 z" stroke-linecap="round" />
</g>
<g transform="matrix(0.09 0 0 -0.09 467.92 127.44)"  >
<path style="stroke: none; stroke-width: 1; stroke-dasharray: none; stroke-linecap: butt; stroke-dashoffset: 0; stroke-linejoin: miter; stroke-miterlimit: 4; fill: rgb(255,255,255); fill-rule: nonzero; opacity: 1;" vector-effect="non-scaling-stroke"  transform=" translate(-5145, -7785)" d="M 4880 7785 L 4880 7750 L 5145 7750 L 5410 7750 L 5410 7785 L 5410 7820 L 5145 7820 L 4880 7820 L 4880 7785 z" stroke-linecap="round" />
</g>
<g transform="matrix(0.09 0 0 -0.09 373.41 121.2)"  >
<path style="stroke: none; stroke-width: 1; stroke-dasharray: none; stroke-linecap: butt; stroke-dashoffset: 0; stroke-linejoin: miter; stroke-miterlimit: 4; fill: rgb(255,255,255); fill-rule: nonzero; opacity: 1;" vector-effect="non-scaling-stroke"  transform=" translate(-4105.75, -7853.63)" d="M 4092 7858 C 4097 7843 4120 7835 4120 7848 C 4120 7853 4113 7861 4104 7864 C 4094 7868 4090 7865 4092 7858 z" stroke-linecap="round" />
</g>
<g transform="matrix(0.09 0 0 -0.09 360.26 122.45)"  >
<path style="stroke: none; stroke-width: 1; stroke-dasharray: none; stroke-linecap: butt; stroke-dashoffset: 0; stroke-linejoin: miter; stroke-miterlimit: 4; fill: rgb(255,255,255); fill-rule: nonzero; opacity: 1;" vector-effect="non-scaling-stroke"  transform=" translate(-3961.15, -7839.84)" d="M 3950 7841 C 3963 7816 3983 7813 3978 7837 C 3976 7847 3967 7856 3957 7858 C 3941 7861 3940 7859 3950 7841 z" stroke-linecap="round" />
</g>
<g transform="matrix(0.09 0 0 -0.09 365.15 122.44)"  >
<path style="stroke: none; stroke-width: 1; stroke-dasharray: none; stroke-linecap: butt; stroke-dashoffset: 0; stroke-linejoin: miter; stroke-miterlimit: 4; fill: rgb(255,255,255); fill-rule: nonzero; opacity: 1;" vector-effect="non-scaling-stroke"  transform=" translate(-4015, -7840)" d="M 4002 7844 C 4003 7835 4011 7825 4018 7822 C 4027 7819 4031 7824 4028 7836 C 4027 7845 4019 7855 4012 7858 C 4003 7861 3999 7856 4002 7844 z" stroke-linecap="round" />
</g>
<g transform="matrix(0.09 0 0 -0.09 369.65 121.98)"  >
<path style="stroke: none; stroke-width: 1; stroke-dasharray: none; stroke-linecap: butt; stroke-dashoffset: 0; stroke-linejoin: miter; stroke-miterlimit: 4; fill: rgb(255,255,255); fill-rule: nonzero; opacity: 1;" vector-effect="non-scaling-stroke"  transform=" translate(-4064.45, -7845)" d="M 4056 7845 C 4060 7837 4067 7830 4072 7830 C 4078 7830 4077 7836 4070 7845 C 4063 7853 4056 7860 4054 7860 C 4052 7860 4053 7853 4056 7845 z" stroke-linecap="round" />
</g>
<g transform="matrix(0.09 0 0 -0.09 374.73 135.64)"  >
<path style="stroke: none; stroke-width: 1; stroke-dasharray: none; stroke-linecap: butt; stroke-dashoffset: 0; stroke-linejoin: miter; stroke-miterlimit: 4; fill: rgb(255,255,255); fill-rule: nonzero; opacity: 1;" vector-effect="non-scaling-stroke"  transform=" translate(-4120.32, -7694.89)" d="M 4205 7846 C 4144 7827 4102 7802 4054 7758 C 4021 7728 4012 7714 4020 7705 C 4028 7695 4021 7690 3988 7684 C 3946 7676 3946 7676 3975 7670 L 4005 7663 L 3975 7651 C 3939 7636 3900 7601 3900 7584 C 3900 7577 3909 7568 3921 7565 C 3933 7561 3939 7553 3936 7544 C 3927 7521 3979 7527 4010 7554 C 4026 7567 4055 7580 4077 7583 C 4140 7593 4206 7642 4249 7712 C 4271 7747 4302 7794 4319 7818 C 4341 7848 4346 7860 4335 7860 C 4316 7860 4259 7801 4210 7730 C 4165 7664 4135 7635 4097 7621 C 4064 7608 4024 7616 4016 7635 C 4010 7652 4023 7662 4081 7683 C 4114 7696 4143 7720 4189 7771 C 4224 7810 4262 7846 4274 7850 C 4294 7858 4294 7859 4270 7859 C 4256 7859 4227 7853 4205 7846 z" stroke-linecap="round" />
</g>
<g transform="matrix(0.09 0 0 -0.09 556.21 136.29)"  >
<path style="stroke: none; stroke-width: 1; stroke-dasharray: none; stroke-linecap: butt; stroke-dashoffset: 0; stroke-linejoin: miter; stroke-miterlimit: 4; fill: rgb(255,255,255); fill-rule: nonzero; opacity: 1;" vector-effect="non-scaling-stroke"  transform=" translate(-6115.73, -7687.68)" d="M 5905 7828 C 5919 7812 5948 7768 5970 7730 C 5992 7693 6024 7650 6042 7634 C 6081 7602 6146 7571 6176 7570 C 6188 7570 6209 7559 6224 7545 C 6251 7520 6300 7511 6300 7531 C 6300 7537 6310 7550 6322 7560 L 6345 7578 L 6325 7600 C 6314 7613 6289 7630 6270 7638 L 6235 7654 L 6265 7660 L 6295 7666 L 6270 7673 C 6256 7677 6234 7680 6221 7680 C 6198 7680 6198 7681 6214 7693 C 6230 7705 6228 7709 6185 7749 C 6131 7799 6054 7837 5990 7845 C 5958 7849 5951 7848 5966 7841 C 5977 7836 6014 7800 6049 7762 C 6097 7707 6123 7687 6163 7672 C 6218 7651 6233 7624 6195 7610 C 6146 7593 6087 7631 6026 7721 C 5980 7789 5926 7846 5901 7853 C 5881 7858 5881 7857 5905 7828 z" stroke-linecap="round" />
</g>
<g transform="matrix(0.09 0 0 -0.09 557.58 122.02)"  >
<path style="stroke: none; stroke-width: 1; stroke-dasharray: none; stroke-linecap: butt; stroke-dashoffset: 0; stroke-linejoin: miter; stroke-miterlimit: 4; fill: rgb(255,255,255); fill-rule: nonzero; opacity: 1;" vector-effect="non-scaling-stroke"  transform=" translate(-6130.8, -7844.64)" d="M 6126 7851 C 6122 7844 6121 7836 6124 7833 C 6133 7824 6143 7837 6138 7851 C 6134 7862 6132 7862 6126 7851 z" stroke-linecap="round" />
</g>
<g transform="matrix(0.09 0 0 -0.09 356.75 123.35)"  >
<path style="stroke: none; stroke-width: 1; stroke-dasharray: none; stroke-linecap: butt; stroke-dashoffset: 0; stroke-linejoin: miter; stroke-miterlimit: 4; fill: rgb(255,255,255); fill-rule: nonzero; opacity: 1;" vector-effect="non-scaling-stroke"  transform=" translate(-3922.61, -7829.96)" d="M 3912 7830 C 3925 7810 3940 7803 3940 7818 C 3940 7828 3918 7850 3908 7850 C 3903 7850 3905 7841 3912 7830 z" stroke-linecap="round" />
</g>
<g transform="matrix(0.09 0 0 -0.09 561.35 122.89)"  >
<path style="stroke: none; stroke-width: 1; stroke-dasharray: none; stroke-linecap: butt; stroke-dashoffset: 0; stroke-linejoin: miter; stroke-miterlimit: 4; fill: rgb(255,255,255); fill-rule: nonzero; opacity: 1;" vector-effect="non-scaling-stroke"  transform=" translate(-6172.3, -7835)" d="M 6166 7835 C 6163 7827 6165 7820 6170 7820 C 6176 7820 6180 7827 6180 7835 C 6180 7843 6178 7850 6176 7850 C 6174 7850 6170 7843 6166 7835 z" stroke-linecap="round" />
</g>
<g transform="matrix(0.09 0 0 -0.09 565.68 122.92)"  >
<path style="stroke: none; stroke-width: 1; stroke-dasharray: none; stroke-linecap: butt; stroke-dashoffset: 0; stroke-linejoin: miter; stroke-miterlimit: 4; fill: rgb(255,255,255); fill-rule: nonzero; opacity: 1;" vector-effect="non-scaling-stroke"  transform=" translate(-6219.86, -7834.7)" d="M 6209 7834 C 6197 7820 6198 7818 6214 7821 C 6225 7823 6235 7831 6238 7838 C 6243 7855 6225 7853 6209 7834 z" stroke-linecap="round" />
</g>
<g transform="matrix(0.09 0 0 -0.09 570.7 123.3)"  >
<path style="stroke: none; stroke-width: 1; stroke-dasharray: none; stroke-linecap: butt; stroke-dashoffset: 0; stroke-linejoin: miter; stroke-miterlimit: 4; fill: rgb(255,255,255); fill-rule: nonzero; opacity: 1;" vector-effect="non-scaling-stroke"  transform=" translate(-6275.01, -7830.49)" d="M 6263 7835 C 6255 7813 6269 7802 6280 7820 C 6293 7840 6292 7850 6280 7850 C 6274 7850 6267 7843 6263 7835 z" stroke-linecap="round" />
</g>
<g transform="matrix(0.09 0 0 -0.09 293.04 123.35)"  >
<path style="stroke: none; stroke-width: 1; stroke-dasharray: none; stroke-linecap: butt; stroke-dashoffset: 0; stroke-linejoin: miter; stroke-miterlimit: 4; fill: rgb(255,255,255); fill-rule: nonzero; opacity: 1;" vector-effect="non-scaling-stroke"  transform=" translate(-3222.09, -7830)" d="M 3195 7830 C 3191 7824 3202 7820 3219 7820 C 3236 7820 3250 7825 3250 7830 C 3250 7836 3239 7840 3226 7840 C 3212 7840 3198 7836 3195 7830 z" stroke-linecap="round" />
</g>
<g transform="matrix(0.09 0 0 -0.09 352.66 124.23)"  >
<path style="stroke: none; stroke-width: 1; stroke-dasharray: none; stroke-linecap: butt; stroke-dashoffset: 0; stroke-linejoin: miter; stroke-miterlimit: 4; fill: rgb(255,255,255); fill-rule: nonzero; opacity: 1;" vector-effect="non-scaling-stroke"  transform=" translate(-3877.6, -7820.26)" d="M 3860 7832 C 3860 7821 3882 7800 3892 7800 C 3897 7800 3896 7809 3890 7820 C 3879 7840 3860 7848 3860 7832 z" stroke-linecap="round" />
</g>
<g transform="matrix(0.09 0 0 -0.09 574.2 124.12)"  >
<path style="stroke: none; stroke-width: 1; stroke-dasharray: none; stroke-linecap: butt; stroke-dashoffset: 0; stroke-linejoin: miter; stroke-miterlimit: 4; fill: rgb(255,255,255); fill-rule: nonzero; opacity: 1;" vector-effect="non-scaling-stroke"  transform=" translate(-6313.57, -7821.49)" d="M 6306 7824 C 6296 7799 6307 7795 6320 7819 C 6326 7831 6327 7840 6321 7840 C 6316 7840 6309 7833 6306 7824 z" stroke-linecap="round" />
</g>
<g transform="matrix(0.09 0 0 -0.09 395.78 124.26)"  >
<path style="stroke: none; stroke-width: 1; stroke-dasharray: none; stroke-linecap: butt; stroke-dashoffset: 0; stroke-linejoin: miter; stroke-miterlimit: 4; fill: rgb(255,255,255); fill-rule: nonzero; opacity: 1;" vector-effect="non-scaling-stroke"  transform=" translate(-4351.8, -7820)" d="M 4345 7820 C 4342 7815 4344 7810 4349 7810 C 4355 7810 4360 7815 4360 7820 C 4360 7826 4358 7830 4356 7830 C 4353 7830 4348 7826 4345 7820 z" stroke-linecap="round" />
</g>
<g transform="matrix(0.09 0 0 -0.09 399.89 125.18)"  >
<path style="stroke: none; stroke-width: 1; stroke-dasharray: none; stroke-linecap: butt; stroke-dashoffset: 0; stroke-linejoin: miter; stroke-miterlimit: 4; fill: rgb(255,255,255); fill-rule: nonzero; opacity: 1;" vector-effect="non-scaling-stroke"  transform=" translate(-4396.94, -7809.84)" d="M 4392 7818 C 4385 7811 4380 7802 4380 7798 C 4380 7783 4395 7790 4408 7810 C 4421 7832 4411 7837 4392 7818 z" stroke-linecap="round" />
</g>
<g transform="matrix(0.09 0 0 -0.09 535.18 124.71)"  >
<path style="stroke: none; stroke-width: 1; stroke-dasharray: none; stroke-linecap: butt; stroke-dashoffset: 0; stroke-linejoin: miter; stroke-miterlimit: 4; fill: rgb(255,255,255); fill-rule: nonzero; opacity: 1;" vector-effect="non-scaling-stroke"  transform=" translate(-5884.45, -7815)" d="M 5876 7815 C 5880 7807 5887 7800 5892 7800 C 5898 7800 5897 7806 5890 7815 C 5883 7823 5876 7830 5874 7830 C 5872 7830 5873 7823 5876 7815 z" stroke-linecap="round" />
</g>
<g transform="matrix(0.09 0 0 -0.09 578.29 125.21)"  >
<path style="stroke: none; stroke-width: 1; stroke-dasharray: none; stroke-linecap: butt; stroke-dashoffset: 0; stroke-linejoin: miter; stroke-miterlimit: 4; fill: rgb(255,255,255); fill-rule: nonzero; opacity: 1;" vector-effect="non-scaling-stroke"  transform=" translate(-6358.49, -7809.52)" d="M 6346 7814 C 6334 7783 6349 7780 6368 7810 C 6378 7826 6378 7830 6366 7830 C 6358 7830 6349 7823 6346 7814 z" stroke-linecap="round" />
</g>
<g transform="matrix(0.09 0 0 -0.09 637.73 124.26)"  >
<path style="stroke: none; stroke-width: 1; stroke-dasharray: none; stroke-linecap: butt; stroke-dashoffset: 0; stroke-linejoin: miter; stroke-miterlimit: 4; fill: rgb(255,255,255); fill-rule: nonzero; opacity: 1;" vector-effect="non-scaling-stroke"  transform=" translate(-7012.09, -7820)" d="M 6985 7820 C 6981 7814 6992 7810 7009 7810 C 7026 7810 7040 7815 7040 7820 C 7040 7826 7029 7830 7016 7830 C 7002 7830 6988 7826 6985 7820 z" stroke-linecap="round" />
</g>
<g transform="matrix(0.09 0 0 -0.09 349.35 125.37)"  >
<path style="stroke: none; stroke-width: 1; stroke-dasharray: none; stroke-linecap: butt; stroke-dashoffset: 0; stroke-linejoin: miter; stroke-miterlimit: 4; fill: rgb(255,255,255); fill-rule: nonzero; opacity: 1;" vector-effect="non-scaling-stroke"  transform=" translate(-3841.21, -7807.73)" d="M 3836 7806 C 3857 7791 3866 7792 3855 7809 C 3852 7815 3841 7820 3832 7820 C 3819 7820 3819 7818 3836 7806 z" stroke-linecap="round" />
</g>
<g transform="matrix(0.09 0 0 -0.09 530.33 125.86)"  >
<path style="stroke: none; stroke-width: 1; stroke-dasharray: none; stroke-linecap: butt; stroke-dashoffset: 0; stroke-linejoin: miter; stroke-miterlimit: 4; fill: rgb(255,255,255); fill-rule: nonzero; opacity: 1;" vector-effect="non-scaling-stroke"  transform=" translate(-5831.15, -7802.39)" d="M 5825 7800 C 5845 7778 5856 7780 5847 7805 C 5843 7813 5833 7820 5824 7820 C 5808 7820 5808 7818 5825 7800 z" stroke-linecap="round" />
</g>
<g transform="matrix(0.09 0 0 -0.09 361.38 174.1)"  >
<path style="stroke: none; stroke-width: 1; stroke-dasharray: none; stroke-linecap: butt; stroke-dashoffset: 0; stroke-linejoin: miter; stroke-miterlimit: 4; fill: rgb(255,255,255); fill-rule: nonzero; opacity: 1;" vector-effect="non-scaling-stroke"  transform=" translate(-3973.5, -7271.91)" d="M 3231 7801 L 3206 7794 L 3246 7751 C 3318 7671 3380 7657 3540 7685 C 3622 7700 3700 7705 3700 7696 C 3700 7693 3675 7668 3645 7639 C 3574 7572 3563 7536 3592 7469 C 3603 7442 3609 7413 3606 7403 C 3601 7390 3606 7392 3624 7409 C 3655 7438 3656 7435 3630 7379 C 3619 7355 3610 7322 3610 7307 C 3610 7268 3590 7283 3589 7323 L 3587 7355 L 3581 7320 C 3572 7273 3577 7256 3603 7245 C 3615 7239 3626 7225 3628 7213 C 3632 7186 3622 7183 3604 7208 C 3594 7221 3587 7223 3574 7214 C 3564 7208 3555 7199 3553 7193 C 3547 7176 3579 7150 3598 7157 C 3638 7171 3642 7181 3636 7259 C 3631 7327 3631 7332 3643 7304 C 3653 7277 3657 7274 3668 7286 C 3683 7303 3741 7305 3757 7289 C 3765 7281 3789 7288 3842 7314 C 3884 7334 3932 7350 3951 7350 C 3970 7350 3998 7357 4014 7365 C 4030 7374 4045 7378 4047 7376 C 4056 7367 4009 7330 3989 7330 C 3970 7330 3972 7325 4008 7286 C 4052 7239 4067 7201 4055 7173 C 4049 7159 4046 7162 4040 7189 C 4031 7226 3951 7310 3924 7310 C 3916 7310 3912 7306 3915 7300 C 3919 7294 3909 7290 3893 7290 C 3878 7290 3858 7286 3850 7280 C 3841 7274 3857 7272 3900 7273 C 3963 7275 3964 7275 3983 7240 L 4004 7205 L 3979 7228 C 3965 7240 3941 7250 3924 7250 L 3895 7250 L 3927 7230 C 3945 7219 3962 7199 3966 7185 C 3972 7159 3966 7077 3954 7033 C 3950 7020 3952 7010 3958 7010 C 3963 7010 3973 7030 3979 7055 C 3993 7110 4024 7130 4065 7112 C 4095 7098 4096 7080 4075 6964 C 4066 6919 4060 6851 4062 6813 L 4065 6745 L 4100 6742 C 4119 6741 4179 6745 4233 6752 L 4331 6765 L 4356 6840 C 4413 7008 4503 7113 4650 7182 L 4741 7225 L 4735 7269 C 4713 7416 4650 7567 4578 7640 C 4532 7688 4455 7738 4382 7768 L 4329 7789 L 4302 7744 C 4243 7644 4193 7596 4121 7572 C 4102 7565 4078 7560 4066 7560 C 4054 7560 4034 7551 4020 7540 L 3995 7520 L 4023 7530 C 4058 7543 4100 7543 4100 7531 C 4100 7526 4090 7519 4078 7517 C 4065 7515 4078 7512 4105 7510 L 4155 7508 L 4115 7495 L 4075 7482 L 4115 7481 C 4162 7480 4202 7460 4158 7460 C 4143 7460 4111 7455 4086 7448 C 4043 7437 4043 7436 4061 7417 C 4071 7405 4083 7381 4086 7362 C 4090 7343 4099 7315 4106 7301 C 4122 7270 4124 7224 4110 7215 C 4104 7211 4100 7221 4100 7237 C 4100 7253 4091 7282 4080 7303 C 4069 7323 4060 7349 4060 7361 C 4060 7387 4010 7435 3944 7474 C 3917 7490 3901 7505 3908 7507 C 3917 7511 3915 7519 3902 7538 C 3874 7579 3870 7595 3885 7623 C 3892 7638 3900 7660 3902 7672 C 3904 7688 3915 7698 3938 7706 C 3957 7712 3981 7731 3995 7752 C 4008 7772 4025 7790 4032 7793 C 4068 7808 3979 7797 3909 7779 C 3823 7757 3815 7757 3706 7786 C 3633 7805 3607 7803 3460 7765 C 3389 7747 3330 7755 3281 7789 C 3264 7800 3246 7804 3231 7801 z M 3805 7635 L 3835 7622 L 3789 7621 C 3706 7619 3612 7541 3623 7483 L 3628 7455 L 3609 7479 C 3589 7503 3585 7528 3598 7545 C 3606 7557 3716 7632 3739 7642 C 3762 7652 3771 7651 3805 7635 z M 3855 7560 C 3852 7555 3821 7549 3787 7548 C 3725 7547 3725 7547 3772 7541 L 3819 7535 L 3780 7503 C 3749 7476 3736 7471 3711 7476 C 3675 7484 3671 7503 3702 7524 C 3714 7533 3720 7540 3714 7540 C 3709 7540 3694 7533 3682 7524 C 3646 7499 3632 7513 3662 7543 C 3687 7568 3695 7570 3775 7570 C 3830 7570 3859 7566 3855 7560 z M 3830 7496 C 3830 7494 3813 7474 3792 7451 C 3744 7398 3715 7397 3663 7446 C 3618 7490 3633 7504 3683 7466 C 3702 7452 3721 7440 3727 7440 C 3733 7440 3754 7454 3775 7470 C 3809 7497 3830 7507 3830 7496 z M 3884 7435 C 3892 7413 3874 7373 3847 7356 C 3834 7347 3801 7338 3774 7334 L 3725 7329 L 3790 7362 C 3843 7389 3856 7400 3858 7423 C 3862 7453 3874 7459 3884 7435 z M 4201 7434 C 4212 7421 4210 7419 4184 7424 L 4155 7430 L 4187 7415 C 4221 7399 4246 7372 4216 7383 C 4206 7387 4175 7390 4147 7390 C 4105 7390 4092 7394 4082 7410 C 4071 7428 4072 7432 4092 7440 C 4129 7454 4186 7452 4201 7434 z M 4229 7355 C 4241 7343 4235 7342 4184 7346 C 4106 7353 4089 7359 4115 7371 C 4141 7382 4211 7373 4229 7355 z M 4224 7319 C 4253 7305 4271 7274 4243 7285 C 4233 7288 4205 7295 4182 7300 C 4158 7304 4133 7313 4127 7319 C 4112 7334 4190 7334 4224 7319 z M 4215 7275 C 4248 7262 4269 7236 4257 7224 C 4252 7218 4130 7277 4130 7285 C 4130 7295 4182 7289 4215 7275 z M 4191 7240 C 4224 7223 4255 7184 4245 7172 C 4241 7167 4140 7235 4136 7248 C 4128 7265 4145 7263 4191 7240 z M 4163 7209 C 4203 7188 4240 7147 4240 7122 C 4240 7101 4238 7099 4225 7110 C 4212 7121 4211 7120 4216 7106 C 4219 7097 4219 7078 4215 7062 L 4208 7035 L 4195 7072 C 4188 7093 4168 7125 4151 7145 C 4117 7185 4113 7195 4135 7186 C 4148 7182 4149 7184 4140 7200 C 4128 7223 4132 7225 4163 7209 z M 4176 7075 C 4179 7061 4179 7038 4174 7023 L 4166 6995 L 4162 7020 C 4158 7044 4157 7044 4141 7011 C 4114 6955 4105 6963 4108 7041 C 4111 7103 4113 7110 4127 7098 C 4141 7086 4142 7087 4132 7107 C 4125 7119 4120 7135 4120 7142 C 4121 7161 4169 7103 4176 7075 z" stroke-linecap="round" />
</g>
<g transform="matrix(0.09 0 0 -0.09 375.24 161.07)"  >
<path style="stroke: none; stroke-width: 1; stroke-dasharray: none; stroke-linecap: butt; stroke-dashoffset: 0; stroke-linejoin: miter; stroke-miterlimit: 4; fill: rgb(255,255,255); fill-rule: nonzero; opacity: 1;" vector-effect="non-scaling-stroke"  transform=" translate(-4125.86, -7415.19)" d="M 4118 7413 C 4125 7410 4134 7411 4137 7414 C 4141 7417 4135 7420 4124 7419 C 4113 7419 4110 7416 4118 7413 z" stroke-linecap="round" />
</g>
<g transform="matrix(0.09 0 0 -0.09 381.53 185.66)"  >
<path style="stroke: none; stroke-width: 1; stroke-dasharray: none; stroke-linecap: butt; stroke-dashoffset: 0; stroke-linejoin: miter; stroke-miterlimit: 4; fill: rgb(255,255,255); fill-rule: nonzero; opacity: 1;" vector-effect="non-scaling-stroke"  transform=" translate(-4195.03, -7144.9)" d="M 4180 7156 C 4180 7154 4188 7146 4198 7139 C 4213 7126 4214 7127 4201 7143 C 4188 7159 4180 7164 4180 7156 z" stroke-linecap="round" />
</g>
<g transform="matrix(0.09 0 0 -0.09 376.96 192.84)"  >
<path style="stroke: none; stroke-width: 1; stroke-dasharray: none; stroke-linecap: butt; stroke-dashoffset: 0; stroke-linejoin: miter; stroke-miterlimit: 4; fill: rgb(255,255,255); fill-rule: nonzero; opacity: 1;" vector-effect="non-scaling-stroke"  transform=" translate(-4144.81, -7065.86)" d="M 4141 7064 C 4141 7053 4144 7050 4147 7058 C 4150 7065 4149 7074 4146 7077 C 4143 7081 4140 7075 4141 7064 z" stroke-linecap="round" />
</g>
<g transform="matrix(0.09 0 0 -0.09 345.27 126.33)"  >
<path style="stroke: none; stroke-width: 1; stroke-dasharray: none; stroke-linecap: butt; stroke-dashoffset: 0; stroke-linejoin: miter; stroke-miterlimit: 4; fill: rgb(255,255,255); fill-rule: nonzero; opacity: 1;" vector-effect="non-scaling-stroke"  transform=" translate(-3796.34, -7797.2)" d="M 3774 7799 C 3771 7794 3780 7790 3794 7790 C 3825 7790 3828 7796 3800 7803 C 3789 7806 3777 7804 3774 7799 z" stroke-linecap="round" />
</g>
<g transform="matrix(0.09 0 0 -0.09 404.46 126.75)"  >
<path style="stroke: none; stroke-width: 1; stroke-dasharray: none; stroke-linecap: butt; stroke-dashoffset: 0; stroke-linejoin: miter; stroke-miterlimit: 4; fill: rgb(255,255,255); fill-rule: nonzero; opacity: 1;" vector-effect="non-scaling-stroke"  transform=" translate(-4447.21, -7792.54)" d="M 4435 7797 C 4423 7788 4421 7781 4428 7776 C 4434 7772 4448 7778 4460 7790 C 4483 7813 4465 7818 4435 7797 z" stroke-linecap="round" />
</g>
<g transform="matrix(0.09 0 0 -0.09 581.61 126.08)"  >
<path style="stroke: none; stroke-width: 1; stroke-dasharray: none; stroke-linecap: butt; stroke-dashoffset: 0; stroke-linejoin: miter; stroke-miterlimit: 4; fill: rgb(255,255,255); fill-rule: nonzero; opacity: 1;" vector-effect="non-scaling-stroke"  transform=" translate(-6395, -7800)" d="M 6385 7800 C 6382 7795 6383 7790 6389 7790 C 6394 7790 6402 7795 6405 7800 C 6408 7806 6407 7810 6401 7810 C 6396 7810 6388 7806 6385 7800 z" stroke-linecap="round" />
</g>
<g transform="matrix(0.09 0 0 -0.09 526.59 127.61)"  >
<path style="stroke: none; stroke-width: 1; stroke-dasharray: none; stroke-linecap: butt; stroke-dashoffset: 0; stroke-linejoin: miter; stroke-miterlimit: 4; fill: rgb(255,255,255); fill-rule: nonzero; opacity: 1;" vector-effect="non-scaling-stroke"  transform=" translate(-5790.02, -7783.12)" d="M 5774 7781 C 5784 7770 5799 7764 5807 7767 C 5821 7772 5820 7775 5804 7787 C 5794 7794 5780 7800 5772 7800 C 5760 7800 5760 7796 5774 7781 z" stroke-linecap="round" />
</g>
<g transform="matrix(0.09 0 0 -0.09 586.11 127.03)"  >
<path style="stroke: none; stroke-width: 1; stroke-dasharray: none; stroke-linecap: butt; stroke-dashoffset: 0; stroke-linejoin: miter; stroke-miterlimit: 4; fill: rgb(255,255,255); fill-rule: nonzero; opacity: 1;" vector-effect="non-scaling-stroke"  transform=" translate(-6444.46, -7789.5)" d="M 6430 7790 C 6418 7782 6421 7780 6443 7780 C 6459 7780 6469 7784 6465 7790 C 6457 7802 6449 7802 6430 7790 z" stroke-linecap="round" />
</g>
<g transform="matrix(0.09 0 0 -0.09 569.43 174.81)"  >
<path style="stroke: none; stroke-width: 1; stroke-dasharray: none; stroke-linecap: butt; stroke-dashoffset: 0; stroke-linejoin: miter; stroke-miterlimit: 4; fill: rgb(255,255,255); fill-rule: nonzero; opacity: 1;" vector-effect="non-scaling-stroke"  transform=" translate(-6261.04, -7264.16)" d="M 6941 7774 C 6893 7740 6826 7739 6721 7771 C 6641 7795 6598 7795 6499 7770 L 6419 7749 L 6334 7770 C 6287 7781 6237 7790 6223 7790 C 6198 7790 6198 7790 6236 7748 C 6257 7724 6287 7701 6302 7697 C 6323 7691 6332 7681 6337 7659 C 6340 7643 6347 7627 6351 7624 C 6369 7613 6359 7561 6333 7530 C 6312 7505 6301 7499 6279 7502 C 6256 7506 6253 7504 6261 7493 C 6270 7483 6268 7480 6251 7480 C 6240 7480 6230 7475 6230 7469 C 6230 7461 6218 7460 6198 7464 C 6166 7469 6166 7469 6189 7456 C 6210 7445 6218 7446 6264 7471 C 6292 7487 6319 7500 6324 7500 C 6342 7500 6306 7469 6259 7443 C 6205 7414 6186 7391 6175 7340 C 6171 7321 6161 7296 6154 7285 C 6146 7274 6140 7253 6140 7238 C 6140 7223 6136 7208 6130 7205 C 6115 7195 6119 7271 6135 7300 C 6143 7314 6149 7337 6150 7352 C 6150 7366 6161 7391 6174 7407 C 6194 7431 6195 7436 6182 7437 C 6123 7441 6061 7454 6066 7461 C 6069 7466 6092 7470 6118 7471 L 6165 7472 L 6120 7485 C 6094 7493 6084 7498 6097 7499 C 6109 7500 6126 7507 6135 7516 C 6146 7528 6161 7531 6186 7527 C 6216 7522 6220 7523 6210 7535 C 6203 7543 6188 7550 6176 7550 C 6093 7550 6001 7618 5941 7722 L 5909 7779 L 5858 7760 C 5694 7698 5585 7579 5536 7409 C 5509 7315 5491 7210 5503 7210 C 5509 7210 5550 7192 5596 7170 C 5734 7103 5827 6991 5884 6822 L 5907 6755 L 6033 6741 C 6103 6733 6163 6729 6166 6732 C 6183 6750 6181 6855 6161 6959 C 6140 7066 6140 7073 6156 7091 C 6192 7131 6237 7108 6260 7038 C 6277 6982 6283 6992 6274 7063 C 6262 7159 6266 7182 6300 7213 C 6328 7238 6329 7240 6308 7240 C 6296 7240 6276 7230 6263 7218 C 6228 7186 6235 7216 6270 7252 C 6287 7268 6307 7280 6315 7277 C 6351 7263 6403 7258 6396 7269 C 6392 7275 6373 7280 6354 7280 C 6335 7280 6320 7285 6320 7290 C 6320 7313 6289 7297 6246 7253 C 6220 7225 6200 7196 6200 7183 C 6200 7170 6196 7160 6190 7160 C 6185 7160 6180 7174 6180 7190 C 6180 7213 6192 7234 6226 7270 C 6265 7312 6269 7320 6252 7320 C 6230 7320 6182 7355 6191 7364 C 6194 7368 6210 7364 6226 7355 C 6242 7347 6271 7340 6290 7340 C 6309 7340 6357 7324 6395 7305 C 6439 7284 6469 7275 6475 7281 C 6490 7296 6552 7291 6572 7273 C 6589 7258 6590 7258 6590 7276 C 6590 7286 6595 7302 6601 7310 C 6608 7321 6610 7309 6605 7266 C 6599 7211 6599 7208 6615 7223 C 6624 7233 6638 7240 6646 7240 C 6662 7240 6665 7311 6650 7345 C 6644 7360 6641 7353 6640 7315 L 6638 7265 L 6626 7317 C 6619 7345 6605 7381 6596 7395 C 6579 7421 6579 7421 6599 7411 C 6610 7405 6624 7392 6629 7382 C 6635 7373 6639 7370 6640 7375 C 6640 7381 6636 7391 6631 7399 C 6625 7408 6628 7426 6641 7449 C 6677 7517 6661 7571 6585 7638 C 6560 7660 6540 7680 6540 7684 C 6540 7695 6626 7690 6707 7675 C 6855 7647 6910 7658 6983 7733 C 7027 7778 7030 7785 7014 7791 C 6986 7802 6978 7800 6941 7774 z M 6576 7584 C 6612 7558 6644 7531 6647 7524 C 6652 7512 6624 7450 6614 7450 C 6610 7450 6611 7462 6614 7476 C 6623 7509 6605 7537 6550 7575 C 6522 7594 6489 7607 6456 7611 C 6408 7616 6407 7617 6430 7628 C 6468 7646 6505 7635 6576 7584 z M 6533 7560 C 6551 7560 6590 7526 6590 7510 C 6590 7495 6564 7498 6550 7515 C 6543 7523 6533 7530 6527 7530 C 6521 7530 6526 7523 6538 7514 C 6569 7492 6565 7473 6528 7468 C 6502 7464 6488 7469 6458 7494 L 6421 7525 L 6468 7531 L 6515 7537 L 6458 7538 C 6375 7541 6353 7554 6420 7561 C 6450 7564 6484 7566 6495 7564 C 6506 7562 6523 7560 6533 7560 z M 6466 7458 L 6510 7427 L 6550 7455 C 6603 7492 6615 7478 6568 7434 C 6518 7388 6494 7390 6440 7445 C 6389 7497 6402 7504 6466 7458 z M 6443 7356 C 6475 7340 6498 7325 6496 7323 C 6485 7311 6406 7334 6380 7357 C 6350 7382 6344 7403 6357 7435 C 6362 7449 6366 7445 6374 7419 C 6383 7392 6397 7379 6443 7356 z M 6147 7428 L 6175 7417 L 6145 7410 C 6129 7406 6123 7402 6133 7401 C 6142 7401 6150 7396 6150 7391 C 6150 7386 6118 7380 6080 7378 C 6004 7375 5992 7387 6051 7407 C 6084 7419 6085 7419 6057 7419 C 6014 7420 6036 7440 6080 7440 C 6101 7440 6131 7435 6147 7428 z M 6125 7360 C 6133 7347 6118 7343 6053 7337 C 5998 7333 5983 7344 6023 7360 C 6053 7372 6117 7372 6125 7360 z M 6118 7318 C 6115 7311 6098 7302 6079 7297 C 6060 7293 6032 7285 6016 7280 C 5980 7268 5971 7275 5992 7297 C 6018 7322 6125 7340 6118 7318 z M 6110 7282 C 6110 7278 6098 7267 6083 7257 C 6059 7242 6058 7240 6078 7245 C 6113 7255 6104 7233 6061 7206 C 6039 7192 6019 7176 6015 7170 C 6006 7155 5990 7158 5990 7174 C 5990 7182 6004 7200 6021 7214 C 6056 7244 6052 7247 6010 7225 C 5985 7212 5980 7212 5980 7223 C 5980 7245 6012 7269 6056 7279 C 6108 7291 6110 7291 6110 7282 z M 6100 7203 C 6100 7200 6078 7173 6050 7145 C 6001 7093 5981 7091 6006 7141 C 6023 7175 6100 7226 6100 7203 z M 6110 7171 C 6110 7166 6094 7143 6075 7120 C 6056 7097 6040 7070 6040 7059 C 6040 7036 6025 7034 6016 7055 C 6008 7078 6019 7101 6058 7143 C 6094 7180 6110 7189 6110 7171 z M 6116 7124 C 6112 7115 6115 7101 6121 7094 C 6127 7086 6130 7063 6128 7043 C 6125 7022 6127 6995 6131 6983 C 6136 6970 6136 6960 6131 6960 C 6115 6960 6092 6995 6087 7025 L 6083 7055 L 6081 7022 C 6079 6977 6060 6991 6060 7037 C 6060 7059 6069 7088 6083 7107 C 6106 7141 6127 7152 6116 7124 z" stroke-linecap="round" />
</g>
<g transform="matrix(0.09 0 0 -0.09 408.36 129.16)"  >
<path style="stroke: none; stroke-width: 1; stroke-dasharray: none; stroke-linecap: butt; stroke-dashoffset: 0; stroke-linejoin: miter; stroke-miterlimit: 4; fill: rgb(255,255,255); fill-rule: nonzero; opacity: 1;" vector-effect="non-scaling-stroke"  transform=" translate(-4490.05, -7766.12)" d="M 4475 7769 C 4463 7750 4480 7746 4497 7763 C 4513 7779 4513 7780 4498 7780 C 4489 7780 4478 7775 4475 7769 z" stroke-linecap="round" />
</g>
<g transform="matrix(0.09 0 0 -0.09 522.91 129.94)"  >
<path style="stroke: none; stroke-width: 1; stroke-dasharray: none; stroke-linecap: butt; stroke-dashoffset: 0; stroke-linejoin: miter; stroke-miterlimit: 4; fill: rgb(255,255,255); fill-rule: nonzero; opacity: 1;" vector-effect="non-scaling-stroke"  transform=" translate(-5749.64, -7757.5)" d="M 5740 7755 C 5747 7747 5756 7743 5761 7746 C 5774 7754 5762 7770 5743 7770 C 5730 7770 5730 7767 5740 7755 z" stroke-linecap="round" />
</g>
<g transform="matrix(0.09 0 0 -0.09 412.46 131.04)"  >
<path style="stroke: none; stroke-width: 1; stroke-dasharray: none; stroke-linecap: butt; stroke-dashoffset: 0; stroke-linejoin: miter; stroke-miterlimit: 4; fill: rgb(255,255,255); fill-rule: nonzero; opacity: 1;" vector-effect="non-scaling-stroke"  transform=" translate(-4535.17, -7745.38)" d="M 4520 7745 C 4504 7726 4519 7726 4544 7745 C 4560 7757 4561 7760 4548 7760 C 4540 7760 4527 7753 4520 7745 z" stroke-linecap="round" />
</g>
<g transform="matrix(0.09 0 0 -0.09 518.84 131.95)"  >
<path style="stroke: none; stroke-width: 1; stroke-dasharray: none; stroke-linecap: butt; stroke-dashoffset: 0; stroke-linejoin: miter; stroke-miterlimit: 4; fill: rgb(255,255,255); fill-rule: nonzero; opacity: 1;" vector-effect="non-scaling-stroke"  transform=" translate(-5704.83, -7735.38)" d="M 5696 7735 C 5721 7716 5736 7716 5720 7735 C 5713 7743 5700 7750 5692 7750 C 5679 7750 5680 7747 5696 7735 z" stroke-linecap="round" />
</g>
<g transform="matrix(0.09 0 0 -0.09 415.35 133.57)"  >
<path style="stroke: none; stroke-width: 1; stroke-dasharray: none; stroke-linecap: butt; stroke-dashoffset: 0; stroke-linejoin: miter; stroke-miterlimit: 4; fill: rgb(255,255,255); fill-rule: nonzero; opacity: 1;" vector-effect="non-scaling-stroke"  transform=" translate(-4566.94, -7717.61)" d="M 4550 7720 C 4524 7704 4546 7699 4576 7715 C 4599 7727 4601 7730 4585 7730 C 4574 7730 4558 7726 4550 7720 z" stroke-linecap="round" />
</g>
<g transform="matrix(0.09 0 0 -0.09 515.66 134.4)"  >
<path style="stroke: none; stroke-width: 1; stroke-dasharray: none; stroke-linecap: butt; stroke-dashoffset: 0; stroke-linejoin: miter; stroke-miterlimit: 4; fill: rgb(255,255,255); fill-rule: nonzero; opacity: 1;" vector-effect="non-scaling-stroke"  transform=" translate(-5669.88, -7708.5)" d="M 5660 7706 C 5674 7699 5689 7695 5694 7698 C 5706 7704 5679 7720 5655 7720 C 5638 7720 5638 7718 5660 7706 z" stroke-linecap="round" />
</g>
<g transform="matrix(0.09 0 0 -0.09 418.08 136.31)"  >
<path style="stroke: none; stroke-width: 1; stroke-dasharray: none; stroke-linecap: butt; stroke-dashoffset: 0; stroke-linejoin: miter; stroke-miterlimit: 4; fill: rgb(255,255,255); fill-rule: nonzero; opacity: 1;" vector-effect="non-scaling-stroke"  transform=" translate(-4596.99, -7687.43)" d="M 4582 7693 C 4576 7691 4572 7685 4575 7680 C 4581 7670 4620 7679 4620 7691 C 4620 7701 4603 7702 4582 7693 z" stroke-linecap="round" />
</g>
<g transform="matrix(0.09 0 0 -0.09 512.49 136.99)"  >
<path style="stroke: none; stroke-width: 1; stroke-dasharray: none; stroke-linecap: butt; stroke-dashoffset: 0; stroke-linejoin: miter; stroke-miterlimit: 4; fill: rgb(255,255,255); fill-rule: nonzero; opacity: 1;" vector-effect="non-scaling-stroke"  transform=" translate(-5635, -7680)" d="M 5615 7680 C 5618 7675 5630 7670 5641 7670 C 5652 7670 5658 7675 5655 7680 C 5652 7686 5640 7690 5629 7690 C 5618 7690 5612 7686 5615 7680 z" stroke-linecap="round" />
</g>
<g transform="matrix(0.09 0 0 -0.09 329.25 137.47)"  >
<path style="stroke: none; stroke-width: 1; stroke-dasharray: none; stroke-linecap: butt; stroke-dashoffset: 0; stroke-linejoin: miter; stroke-miterlimit: 4; fill: rgb(255,255,255); fill-rule: nonzero; opacity: 1;" vector-effect="non-scaling-stroke"  transform=" translate(-3620.18, -7674.75)" d="M 3608 7673 C 3614 7671 3626 7671 3633 7673 C 3639 7676 3634 7678 3620 7678 C 3606 7678 3601 7676 3608 7673 z" stroke-linecap="round" />
</g>
<g transform="matrix(0.09 0 0 -0.09 601.18 138.38)"  >
<path style="stroke: none; stroke-width: 1; stroke-dasharray: none; stroke-linecap: butt; stroke-dashoffset: 0; stroke-linejoin: miter; stroke-miterlimit: 4; fill: rgb(255,255,255); fill-rule: nonzero; opacity: 1;" vector-effect="non-scaling-stroke"  transform=" translate(-6610.18, -7664.75)" d="M 6598 7663 C 6604 7661 6616 7661 6623 7663 C 6629 7666 6624 7668 6610 7668 C 6596 7668 6591 7666 6598 7663 z" stroke-linecap="round" />
</g>
<g transform="matrix(0.09 0 0 -0.09 325.89 140.82)"  >
<path style="stroke: none; stroke-width: 1; stroke-dasharray: none; stroke-linecap: butt; stroke-dashoffset: 0; stroke-linejoin: miter; stroke-miterlimit: 4; fill: rgb(255,255,255); fill-rule: nonzero; opacity: 1;" vector-effect="non-scaling-stroke"  transform=" translate(-3583.25, -7637.84)" d="M 3569 7649 C 3558 7643 3558 7638 3568 7628 C 3578 7618 3583 7619 3596 7632 C 3609 7645 3609 7648 3597 7653 C 3590 7656 3577 7654 3569 7649 z" stroke-linecap="round" />
</g>
<g transform="matrix(0.09 0 0 -0.09 420.63 139.51)"  >
<path style="stroke: none; stroke-width: 1; stroke-dasharray: none; stroke-linecap: butt; stroke-dashoffset: 0; stroke-linejoin: miter; stroke-miterlimit: 4; fill: rgb(255,255,255); fill-rule: nonzero; opacity: 1;" vector-effect="non-scaling-stroke"  transform=" translate(-4625, -7652.3)" d="M 4610 7650 C 4610 7645 4617 7643 4625 7646 C 4633 7650 4640 7654 4640 7656 C 4640 7658 4633 7660 4625 7660 C 4617 7660 4610 7656 4610 7650 z" stroke-linecap="round" />
</g>
<g transform="matrix(0.09 0 0 -0.09 467.01 158.82)"  >
<path style="stroke: none; stroke-width: 1; stroke-dasharray: none; stroke-linecap: butt; stroke-dashoffset: 0; stroke-linejoin: miter; stroke-miterlimit: 4; fill: rgb(255,255,255); fill-rule: nonzero; opacity: 1;" vector-effect="non-scaling-stroke"  transform=" translate(-5135, -7440)" d="M 4830 7440 L 4830 7220 L 5133 7222 L 5435 7225 L 5438 7443 L 5440 7660 L 5135 7660 L 4830 7660 L 4830 7440 z M 5410 7440 L 5410 7240 L 5135 7240 L 4860 7240 L 4860 7440 L 4860 7640 L 5135 7640 L 5410 7640 L 5410 7440 z" stroke-linecap="round" />
</g>
<g transform="matrix(0.09 0 0 -0.09 466.79 158.36)"  >
<path style="stroke: none; stroke-width: 1; stroke-dasharray: none; stroke-linecap: butt; stroke-dashoffset: 0; stroke-linejoin: miter; stroke-miterlimit: 4; fill: rgb(255,255,255); fill-rule: nonzero; opacity: 1;" vector-effect="non-scaling-stroke"  transform=" translate(-5132.5, -7445)" d="M 4900 7445 L 4900 7290 L 4967 7290 L 5033 7290 L 5013 7313 C 4954 7377 4942 7469 4985 7533 C 5000 7554 5019 7570 5030 7570 C 5040 7570 5052 7575 5055 7580 C 5064 7595 5155 7592 5209 7574 C 5305 7543 5337 7437 5275 7356 C 5258 7334 5235 7317 5218 7313 C 5159 7301 5193 7289 5278 7292 L 5365 7295 L 5365 7445 L 5365 7595 L 5133 7598 L 4900 7600 L 4900 7445 z" stroke-linecap="round" />
</g>
<g transform="matrix(0.09 0 0 -0.09 468.28 151.1)"  >
<path style="stroke: none; stroke-width: 1; stroke-dasharray: none; stroke-linecap: butt; stroke-dashoffset: 0; stroke-linejoin: miter; stroke-miterlimit: 4; fill: rgb(255,255,255); fill-rule: nonzero; opacity: 1;" vector-effect="non-scaling-stroke"  transform=" translate(-5148.95, -7524.82)" d="M 5148 7554 C 5143 7550 5140 7533 5140 7516 C 5141 7490 5142 7488 5151 7503 C 5162 7522 5159 7566 5148 7554 z" stroke-linecap="round" />
</g>
<g transform="matrix(0.09 0 0 -0.09 462.47 151.45)"  >
<path style="stroke: none; stroke-width: 1; stroke-dasharray: none; stroke-linecap: butt; stroke-dashoffset: 0; stroke-linejoin: miter; stroke-miterlimit: 4; fill: rgb(255,255,255); fill-rule: nonzero; opacity: 1;" vector-effect="non-scaling-stroke"  transform=" translate(-5085, -7521.04)" d="M 5070 7537 C 5070 7522 5099 7480 5100 7495 C 5100 7501 5097 7515 5094 7528 C 5087 7552 5070 7559 5070 7537 z" stroke-linecap="round" />
</g>
<g transform="matrix(0.09 0 0 -0.09 472.74 152.9)"  >
<path style="stroke: none; stroke-width: 1; stroke-dasharray: none; stroke-linecap: butt; stroke-dashoffset: 0; stroke-linejoin: miter; stroke-miterlimit: 4; fill: rgb(255,255,255); fill-rule: nonzero; opacity: 1;" vector-effect="non-scaling-stroke"  transform=" translate(-5197.91, -7505.06)" d="M 5186 7505 C 5177 7491 5173 7480 5178 7480 C 5188 7480 5220 7513 5220 7523 C 5220 7538 5201 7528 5186 7505 z" stroke-linecap="round" />
</g>
<g transform="matrix(0.09 0 0 -0.09 458.87 154.11)"  >
<path style="stroke: none; stroke-width: 1; stroke-dasharray: none; stroke-linecap: butt; stroke-dashoffset: 0; stroke-linejoin: miter; stroke-miterlimit: 4; fill: rgb(255,255,255); fill-rule: nonzero; opacity: 1;" vector-effect="non-scaling-stroke"  transform=" translate(-5045.46, -7491.73)" d="M 5015 7510 C 5010 7501 5068 7465 5076 7472 C 5078 7475 5067 7486 5050 7498 C 5034 7510 5018 7516 5015 7510 z" stroke-linecap="round" />
</g>
<g transform="matrix(0.09 0 0 -0.09 475.26 156.48)"  >
<path style="stroke: none; stroke-width: 1; stroke-dasharray: none; stroke-linecap: butt; stroke-dashoffset: 0; stroke-linejoin: miter; stroke-miterlimit: 4; fill: rgb(255,255,255); fill-rule: nonzero; opacity: 1;" vector-effect="non-scaling-stroke"  transform=" translate(-5225.71, -7465.69)" d="M 5211 7469 C 5198 7464 5189 7457 5192 7455 C 5200 7447 5260 7462 5260 7471 C 5260 7482 5242 7481 5211 7469 z" stroke-linecap="round" />
</g>
<g transform="matrix(0.09 0 0 -0.09 456.5 157.91)"  >
<path style="stroke: none; stroke-width: 1; stroke-dasharray: none; stroke-linecap: butt; stroke-dashoffset: 0; stroke-linejoin: miter; stroke-miterlimit: 4; fill: rgb(255,255,255); fill-rule: nonzero; opacity: 1;" vector-effect="non-scaling-stroke"  transform=" translate(-5019.37, -7449.94)" d="M 4985 7450 C 4988 7445 5008 7440 5028 7441 C 5058 7441 5061 7443 5045 7450 C 5017 7462 4978 7462 4985 7450 z" stroke-linecap="round" />
</g>
<g transform="matrix(0.09 0 0 -0.09 465.98 159.21)"  >
<path style="stroke: none; stroke-width: 1; stroke-dasharray: none; stroke-linecap: butt; stroke-dashoffset: 0; stroke-linejoin: miter; stroke-miterlimit: 4; fill: rgb(255,255,255); fill-rule: nonzero; opacity: 1;" vector-effect="non-scaling-stroke"  transform=" translate(-5123.62, -7435.72)" d="M 5104 7445 C 5100 7435 5103 7424 5111 7419 C 5131 7407 5145 7414 5145 7436 C 5145 7460 5112 7467 5104 7445 z" stroke-linecap="round" />
</g>
<g transform="matrix(0.09 0 0 -0.09 475.67 160.62)"  >
<path style="stroke: none; stroke-width: 1; stroke-dasharray: none; stroke-linecap: butt; stroke-dashoffset: 0; stroke-linejoin: miter; stroke-miterlimit: 4; fill: rgb(255,255,255); fill-rule: nonzero; opacity: 1;" vector-effect="non-scaling-stroke"  transform=" translate(-5230.2, -7420.13)" d="M 5200 7420 C 5220 7407 5273 7407 5265 7420 C 5262 7426 5242 7430 5222 7430 C 5194 7430 5189 7427 5200 7420 z" stroke-linecap="round" />
</g>
<g transform="matrix(0.09 0 0 -0.09 457.58 162.2)"  >
<path style="stroke: none; stroke-width: 1; stroke-dasharray: none; stroke-linecap: butt; stroke-dashoffset: 0; stroke-linejoin: miter; stroke-miterlimit: 4; fill: rgb(255,255,255); fill-rule: nonzero; opacity: 1;" vector-effect="non-scaling-stroke"  transform=" translate(-5031.25, -7402.77)" d="M 5022 7409 C 5004 7404 4992 7395 4995 7390 C 5001 7380 5057 7396 5066 7411 C 5072 7422 5066 7421 5022 7409 z" stroke-linecap="round" />
</g>
<g transform="matrix(0.09 0 0 -0.09 473.18 164.39)"  >
<path style="stroke: none; stroke-width: 1; stroke-dasharray: none; stroke-linecap: butt; stroke-dashoffset: 0; stroke-linejoin: miter; stroke-miterlimit: 4; fill: rgb(255,255,255); fill-rule: nonzero; opacity: 1;" vector-effect="non-scaling-stroke"  transform=" translate(-5202.75, -7378.68)" d="M 5170 7396 C 5170 7384 5229 7351 5235 7359 C 5238 7365 5227 7376 5211 7385 C 5180 7400 5170 7403 5170 7396 z" stroke-linecap="round" />
</g>
<g transform="matrix(0.09 0 0 -0.09 459.9 166.13)"  >
<path style="stroke: none; stroke-width: 1; stroke-dasharray: none; stroke-linecap: butt; stroke-dashoffset: 0; stroke-linejoin: miter; stroke-miterlimit: 4; fill: rgb(255,255,255); fill-rule: nonzero; opacity: 1;" vector-effect="non-scaling-stroke"  transform=" translate(-5056.82, -7359.6)" d="M 5052 7367 C 5028 7342 5024 7330 5039 7330 C 5044 7330 5058 7344 5070 7360 C 5095 7395 5083 7400 5052 7367 z" stroke-linecap="round" />
</g>
<g transform="matrix(0.09 0 0 -0.09 464.68 167.43)"  >
<path style="stroke: none; stroke-width: 1; stroke-dasharray: none; stroke-linecap: butt; stroke-dashoffset: 0; stroke-linejoin: miter; stroke-miterlimit: 4; fill: rgb(255,255,255); fill-rule: nonzero; opacity: 1;" vector-effect="non-scaling-stroke"  transform=" translate(-5109.32, -7345.34)" d="M 5108 7367 C 5096 7338 5098 7304 5111 7317 C 5117 7323 5120 7340 5118 7356 C 5116 7380 5114 7382 5108 7367 z" stroke-linecap="round" />
</g>
<g transform="matrix(0.09 0 0 -0.09 469.54 167.01)"  >
<path style="stroke: none; stroke-width: 1; stroke-dasharray: none; stroke-linecap: butt; stroke-dashoffset: 0; stroke-linejoin: miter; stroke-miterlimit: 4; fill: rgb(255,255,255); fill-rule: nonzero; opacity: 1;" vector-effect="non-scaling-stroke"  transform=" translate(-5162.8, -7349.96)" d="M 5151 7350 C 5162 7320 5180 7309 5180 7333 C 5179 7346 5156 7380 5147 7380 C 5144 7380 5146 7367 5151 7350 z" stroke-linecap="round" />
</g>
<g transform="matrix(0.09 0 0 -0.09 510.16 139.87)"  >
<path style="stroke: none; stroke-width: 1; stroke-dasharray: none; stroke-linecap: butt; stroke-dashoffset: 0; stroke-linejoin: miter; stroke-miterlimit: 4; fill: rgb(255,255,255); fill-rule: nonzero; opacity: 1;" vector-effect="non-scaling-stroke"  transform=" translate(-5609.44, -7648.33)" d="M 5598 7648 C 5603 7643 5614 7640 5621 7642 C 5629 7645 5624 7649 5611 7653 C 5594 7657 5590 7656 5598 7648 z" stroke-linecap="round" />
</g>
<g transform="matrix(0.09 0 0 -0.09 604.91 141.45)"  >
<path style="stroke: none; stroke-width: 1; stroke-dasharray: none; stroke-linecap: butt; stroke-dashoffset: 0; stroke-linejoin: miter; stroke-miterlimit: 4; fill: rgb(255,255,255); fill-rule: nonzero; opacity: 1;" vector-effect="non-scaling-stroke"  transform=" translate(-6651.18, -7630.99)" d="M 6634 7639 C 6631 7633 6632 7624 6638 7618 C 6651 7605 6670 7616 6670 7636 C 6670 7652 6644 7655 6634 7639 z" stroke-linecap="round" />
</g>
<g transform="matrix(0.09 0 0 -0.09 424.36 143.21)"  >
<path style="stroke: none; stroke-width: 1; stroke-dasharray: none; stroke-linecap: butt; stroke-dashoffset: 0; stroke-linejoin: miter; stroke-miterlimit: 4; fill: rgb(255,255,255); fill-rule: nonzero; opacity: 1;" vector-effect="non-scaling-stroke"  transform=" translate(-4666, -7611.62)" d="M 4643 7622 C 4636 7618 4634 7609 4639 7601 C 4645 7592 4650 7591 4654 7599 C 4658 7605 4670 7610 4681 7610 C 4692 7610 4698 7615 4695 7620 C 4688 7632 4660 7633 4643 7622 z" stroke-linecap="round" />
</g>
<g transform="matrix(0.09 0 0 -0.09 323.24 144.52)"  >
<path style="stroke: none; stroke-width: 1; stroke-dasharray: none; stroke-linecap: butt; stroke-dashoffset: 0; stroke-linejoin: miter; stroke-miterlimit: 4; fill: rgb(255,255,255); fill-rule: nonzero; opacity: 1;" vector-effect="non-scaling-stroke"  transform=" translate(-3554.18, -7597.15)" d="M 3540 7608 C 3540 7601 3544 7589 3549 7581 C 3560 7564 3574 7584 3566 7605 C 3559 7623 3540 7625 3540 7608 z" stroke-linecap="round" />
</g>
<g transform="matrix(0.09 0 0 -0.09 506.65 143.77)"  >
<path style="stroke: none; stroke-width: 1; stroke-dasharray: none; stroke-linecap: butt; stroke-dashoffset: 0; stroke-linejoin: miter; stroke-miterlimit: 4; fill: rgb(255,255,255); fill-rule: nonzero; opacity: 1;" vector-effect="non-scaling-stroke"  transform=" translate(-5570.79, -7605.41)" d="M 5545 7612 C 5551 7607 5566 7599 5579 7595 C 5596 7590 5601 7591 5598 7601 C 5595 7609 5580 7616 5564 7618 C 5545 7620 5539 7618 5545 7612 z" stroke-linecap="round" />
</g>
<g transform="matrix(0.09 0 0 -0.09 607.98 145.13)"  >
<path style="stroke: none; stroke-width: 1; stroke-dasharray: none; stroke-linecap: butt; stroke-dashoffset: 0; stroke-linejoin: miter; stroke-miterlimit: 4; fill: rgb(255,255,255); fill-rule: nonzero; opacity: 1;" vector-effect="non-scaling-stroke"  transform=" translate(-6685.01, -7590.49)" d="M 6673 7595 C 6665 7573 6679 7562 6690 7580 C 6703 7600 6702 7610 6690 7610 C 6684 7610 6677 7603 6673 7595 z" stroke-linecap="round" />
</g>
<g transform="matrix(0.09 0 0 -0.09 426.79 146.61)"  >
<path style="stroke: none; stroke-width: 1; stroke-dasharray: none; stroke-linecap: butt; stroke-dashoffset: 0; stroke-linejoin: miter; stroke-miterlimit: 4; fill: rgb(255,255,255); fill-rule: nonzero; opacity: 1;" vector-effect="non-scaling-stroke"  transform=" translate(-4692.72, -7574.21)" d="M 4678 7583 C 4658 7578 4654 7560 4673 7560 C 4699 7560 4730 7573 4724 7581 C 4719 7590 4707 7591 4678 7583 z" stroke-linecap="round" />
</g>
<g transform="matrix(0.09 0 0 -0.09 504.13 147.25)"  >
<path style="stroke: none; stroke-width: 1; stroke-dasharray: none; stroke-linecap: butt; stroke-dashoffset: 0; stroke-linejoin: miter; stroke-miterlimit: 4; fill: rgb(255,255,255); fill-rule: nonzero; opacity: 1;" vector-effect="non-scaling-stroke"  transform=" translate(-5543.06, -7567.18)" d="M 5510 7571 C 5510 7560 5561 7550 5574 7558 C 5579 7561 5575 7567 5564 7571 C 5537 7582 5510 7582 5510 7571 z" stroke-linecap="round" />
</g>
<g transform="matrix(0.09 0 0 -0.09 428.59 150.59)"  >
<path style="stroke: none; stroke-width: 1; stroke-dasharray: none; stroke-linecap: butt; stroke-dashoffset: 0; stroke-linejoin: miter; stroke-miterlimit: 4; fill: rgb(255,255,255); fill-rule: nonzero; opacity: 1;" vector-effect="non-scaling-stroke"  transform=" translate(-4712.46, -7530.45)" d="M 4680 7530 C 4680 7519 4694 7519 4730 7530 C 4752 7537 4751 7538 4718 7539 C 4697 7540 4680 7536 4680 7530 z" stroke-linecap="round" />
</g>
<g transform="matrix(0.09 0 0 -0.09 502.47 151.33)"  >
<path style="stroke: none; stroke-width: 1; stroke-dasharray: none; stroke-linecap: butt; stroke-dashoffset: 0; stroke-linejoin: miter; stroke-miterlimit: 4; fill: rgb(255,255,255); fill-rule: nonzero; opacity: 1;" vector-effect="non-scaling-stroke"  transform=" translate(-5524.84, -7522.28)" d="M 5515 7519 C 5533 7514 5548 7514 5554 7520 C 5561 7527 5550 7530 5525 7529 C 5485 7528 5485 7528 5515 7519 z" stroke-linecap="round" />
</g>
<g transform="matrix(0.09 0 0 -0.09 364.02 154.43)"  >
<path style="stroke: none; stroke-width: 1; stroke-dasharray: none; stroke-linecap: butt; stroke-dashoffset: 0; stroke-linejoin: miter; stroke-miterlimit: 4; fill: rgb(255,255,255); fill-rule: nonzero; opacity: 1;" vector-effect="non-scaling-stroke"  transform=" translate(-4002.48, -7488.24)" d="M 3957 7511 C 3930 7505 3930 7505 3977 7478 C 4020 7454 4028 7453 4050 7465 C 4074 7478 4073 7479 4036 7473 C 4008 7469 3999 7470 4004 7478 C 4009 7486 4003 7490 3989 7490 C 3971 7490 3970 7492 3980 7505 C 3987 7513 3991 7519 3989 7519 C 3987 7518 3973 7515 3957 7511 z" stroke-linecap="round" />
</g>
<g transform="matrix(0.09 0 0 -0.09 560.77 152.89)"  >
<path style="stroke: none; stroke-width: 1; stroke-dasharray: none; stroke-linecap: butt; stroke-dashoffset: 0; stroke-linejoin: miter; stroke-miterlimit: 4; fill: rgb(255,255,255); fill-rule: nonzero; opacity: 1;" vector-effect="non-scaling-stroke"  transform=" translate(-6165.86, -7505.19)" d="M 6158 7503 C 6165 7500 6174 7501 6177 7504 C 6181 7507 6175 7510 6164 7509 C 6153 7509 6150 7506 6158 7503 z" stroke-linecap="round" />
</g>
<g transform="matrix(0.09 0 0 -0.09 430.18 153.97)"  >
<path style="stroke: none; stroke-width: 1; stroke-dasharray: none; stroke-linecap: butt; stroke-dashoffset: 0; stroke-linejoin: miter; stroke-miterlimit: 4; fill: rgb(255,255,255); fill-rule: nonzero; opacity: 1;" vector-effect="non-scaling-stroke"  transform=" translate(-4730, -7493.3)" d="M 4700 7492 C 4700 7487 4714 7485 4730 7488 C 4747 7490 4760 7494 4760 7496 C 4760 7498 4747 7500 4730 7500 C 4714 7500 4700 7496 4700 7492 z" stroke-linecap="round" />
</g>
<g transform="matrix(0.09 0 0 -0.09 501.14 154.75)"  >
<path style="stroke: none; stroke-width: 1; stroke-dasharray: none; stroke-linecap: butt; stroke-dashoffset: 0; stroke-linejoin: miter; stroke-miterlimit: 4; fill: rgb(255,255,255); fill-rule: nonzero; opacity: 1;" vector-effect="non-scaling-stroke"  transform=" translate(-5510.18, -7484.75)" d="M 5493 7483 C 5502 7481 5518 7481 5528 7483 C 5537 7486 5529 7488 5510 7488 C 5491 7488 5483 7486 5493 7483 z" stroke-linecap="round" />
</g>
<g transform="matrix(0.09 0 0 -0.09 431.09 157.91)"  >
<path style="stroke: none; stroke-width: 1; stroke-dasharray: none; stroke-linecap: butt; stroke-dashoffset: 0; stroke-linejoin: miter; stroke-miterlimit: 4; fill: rgb(255,255,255); fill-rule: nonzero; opacity: 1;" vector-effect="non-scaling-stroke"  transform=" translate(-4740, -7450)" d="M 4715 7450 C 4718 7445 4732 7440 4746 7440 C 4760 7440 4768 7444 4765 7450 C 4762 7456 4748 7460 4734 7460 C 4720 7460 4712 7456 4715 7450 z" stroke-linecap="round" />
</g>
<g transform="matrix(0.09 0 0 -0.09 499.94 158.82)"  >
<path style="stroke: none; stroke-width: 1; stroke-dasharray: none; stroke-linecap: butt; stroke-dashoffset: 0; stroke-linejoin: miter; stroke-miterlimit: 4; fill: rgb(255,255,255); fill-rule: nonzero; opacity: 1;" vector-effect="non-scaling-stroke"  transform=" translate(-5497.02, -7440)" d="M 5475 7440 C 5471 7434 5480 7430 5494 7430 C 5508 7430 5520 7435 5520 7440 C 5520 7446 5511 7450 5501 7450 C 5490 7450 5478 7446 5475 7440 z" stroke-linecap="round" />
</g>
<g transform="matrix(0.09 0 0 -0.09 432.02 161.11)"  >
<path style="stroke: none; stroke-width: 1; stroke-dasharray: none; stroke-linecap: butt; stroke-dashoffset: 0; stroke-linejoin: miter; stroke-miterlimit: 4; fill: rgb(255,255,255); fill-rule: nonzero; opacity: 1;" vector-effect="non-scaling-stroke"  transform=" translate(-4750.18, -7414.75)" d="M 4738 7413 C 4744 7411 4756 7411 4763 7413 C 4769 7416 4764 7418 4750 7418 C 4736 7418 4731 7416 4738 7413 z" stroke-linecap="round" />
</g>
<g transform="matrix(0.09 0 0 -0.09 498.92 161.98)"  >
<path style="stroke: none; stroke-width: 1; stroke-dasharray: none; stroke-linecap: butt; stroke-dashoffset: 0; stroke-linejoin: miter; stroke-miterlimit: 4; fill: rgb(255,255,255); fill-rule: nonzero; opacity: 1;" vector-effect="non-scaling-stroke"  transform=" translate(-5485.86, -7405.19)" d="M 5478 7403 C 5485 7400 5494 7401 5497 7404 C 5501 7407 5495 7410 5484 7409 C 5473 7409 5470 7406 5478 7403 z" stroke-linecap="round" />
</g>
<g transform="matrix(0.09 0 0 -0.09 433.66 168.82)"  >
<path style="stroke: none; stroke-width: 1; stroke-dasharray: none; stroke-linecap: butt; stroke-dashoffset: 0; stroke-linejoin: miter; stroke-miterlimit: 4; fill: rgb(255,255,255); fill-rule: nonzero; opacity: 1;" vector-effect="non-scaling-stroke"  transform=" translate(-4768.2, -7330)" d="M 4760 7330 C 4760 7325 4765 7320 4771 7320 C 4776 7320 4778 7325 4775 7330 C 4772 7336 4767 7340 4764 7340 C 4762 7340 4760 7336 4760 7330 z" stroke-linecap="round" />
</g>
<g transform="matrix(0.09 0 0 -0.09 497.48 169.73)"  >
<path style="stroke: none; stroke-width: 1; stroke-dasharray: none; stroke-linecap: butt; stroke-dashoffset: 0; stroke-linejoin: miter; stroke-miterlimit: 4; fill: rgb(255,255,255); fill-rule: nonzero; opacity: 1;" vector-effect="non-scaling-stroke"  transform=" translate(-5470, -7320)" d="M 5460 7320 C 5460 7315 5465 7310 5470 7310 C 5476 7310 5480 7315 5480 7320 C 5480 7326 5476 7330 5470 7330 C 5465 7330 5460 7326 5460 7320 z" stroke-linecap="round" />
</g>
<g transform="matrix(0.09 0 0 -0.09 333.84 179.85)"  >
<path style="stroke: none; stroke-width: 1; stroke-dasharray: none; stroke-linecap: butt; stroke-dashoffset: 0; stroke-linejoin: miter; stroke-miterlimit: 4; fill: rgb(255,255,255); fill-rule: nonzero; opacity: 1;" vector-effect="non-scaling-stroke"  transform=" translate(-3670.74, -7208.77)" d="M 3681 7255 C 3680 7244 3673 7217 3665 7195 C 3647 7145 3652 7139 3674 7185 C 3684 7205 3689 7233 3687 7248 C 3684 7266 3682 7269 3681 7255 z" stroke-linecap="round" />
</g>
<g transform="matrix(0.09 0 0 -0.09 341.19 180.54)"  >
<path style="stroke: none; stroke-width: 1; stroke-dasharray: none; stroke-linecap: butt; stroke-dashoffset: 0; stroke-linejoin: miter; stroke-miterlimit: 4; fill: rgb(255,255,255); fill-rule: nonzero; opacity: 1;" vector-effect="non-scaling-stroke"  transform=" translate(-3751.54, -7201.17)" d="M 3753 7233 C 3724 7151 3721 7139 3733 7143 C 3740 7145 3750 7167 3757 7193 C 3763 7218 3771 7244 3775 7250 C 3778 7255 3777 7260 3772 7260 C 3767 7260 3758 7248 3753 7233 z" stroke-linecap="round" />
</g>
<g transform="matrix(0.09 0 0 -0.09 589.45 181.2)"  >
<path style="stroke: none; stroke-width: 1; stroke-dasharray: none; stroke-linecap: butt; stroke-dashoffset: 0; stroke-linejoin: miter; stroke-miterlimit: 4; fill: rgb(255,255,255); fill-rule: nonzero; opacity: 1;" vector-effect="non-scaling-stroke"  transform=" translate(-6481.22, -7193.92)" d="M 6465 7234 C 6473 7218 6480 7196 6480 7184 C 6480 7173 6487 7155 6496 7144 C 6511 7125 6511 7125 6506 7145 C 6504 7156 6499 7179 6495 7196 C 6492 7214 6480 7236 6469 7246 C 6449 7264 6449 7263 6465 7234 z" stroke-linecap="round" />
</g>
<g transform="matrix(0.09 0 0 -0.09 596.94 180.64)"  >
<path style="stroke: none; stroke-width: 1; stroke-dasharray: none; stroke-linecap: butt; stroke-dashoffset: 0; stroke-linejoin: miter; stroke-miterlimit: 4; fill: rgb(255,255,255); fill-rule: nonzero; opacity: 1;" vector-effect="non-scaling-stroke"  transform=" translate(-6563.59, -7200)" d="M 6545 7228 C 6552 7196 6577 7140 6584 7140 C 6586 7140 6582 7157 6574 7178 C 6567 7198 6561 7225 6560 7238 C 6560 7250 6555 7260 6549 7260 C 6542 7260 6541 7248 6545 7228 z" stroke-linecap="round" />
</g>
<g transform="matrix(0.09 0 0 -0.09 337.01 181.36)"  >
<path style="stroke: none; stroke-width: 1; stroke-dasharray: none; stroke-linecap: butt; stroke-dashoffset: 0; stroke-linejoin: miter; stroke-miterlimit: 4; fill: rgb(255,255,255); fill-rule: nonzero; opacity: 1;" vector-effect="non-scaling-stroke"  transform=" translate(-3705.55, -7192.14)" d="M 3714 7233 C 3711 7223 3702 7198 3695 7178 C 3688 7157 3685 7138 3690 7135 C 3700 7129 3709 7151 3719 7208 C 3727 7250 3724 7265 3714 7233 z" stroke-linecap="round" />
</g>
<g transform="matrix(0.09 0 0 -0.09 346.15 181.55)"  >
<path style="stroke: none; stroke-width: 1; stroke-dasharray: none; stroke-linecap: butt; stroke-dashoffset: 0; stroke-linejoin: miter; stroke-miterlimit: 4; fill: rgb(255,255,255); fill-rule: nonzero; opacity: 1;" vector-effect="non-scaling-stroke"  transform=" translate(-3806.04, -7190.03)" d="M 3807 7238 C 3792 7225 3757 7140 3765 7132 C 3774 7123 3793 7146 3811 7188 C 3822 7214 3837 7238 3843 7242 C 3851 7247 3850 7250 3839 7250 C 3831 7250 3816 7244 3807 7238 z" stroke-linecap="round" />
</g>
<g transform="matrix(0.09 0 0 -0.09 434.57 177.01)"  >
<path style="stroke: none; stroke-width: 1; stroke-dasharray: none; stroke-linecap: butt; stroke-dashoffset: 0; stroke-linejoin: miter; stroke-miterlimit: 4; fill: rgb(255,255,255); fill-rule: nonzero; opacity: 1;" vector-effect="non-scaling-stroke"  transform=" translate(-4778.2, -7240)" d="M 4770 7240 C 4770 7235 4775 7230 4781 7230 C 4786 7230 4788 7235 4785 7240 C 4782 7246 4777 7250 4774 7250 C 4772 7250 4770 7246 4770 7240 z" stroke-linecap="round" />
</g>
<g transform="matrix(0.09 0 0 -0.09 496.57 177.92)"  >
<path style="stroke: none; stroke-width: 1; stroke-dasharray: none; stroke-linecap: butt; stroke-dashoffset: 0; stroke-linejoin: miter; stroke-miterlimit: 4; fill: rgb(255,255,255); fill-rule: nonzero; opacity: 1;" vector-effect="non-scaling-stroke"  transform=" translate(-5460, -7230)" d="M 5450 7230 C 5450 7225 5455 7220 5460 7220 C 5466 7220 5470 7225 5470 7230 C 5470 7236 5466 7240 5460 7240 C 5455 7240 5450 7236 5450 7230 z" stroke-linecap="round" />
</g>
<g transform="matrix(0.09 0 0 -0.09 585.04 182.46)"  >
<path style="stroke: none; stroke-width: 1; stroke-dasharray: none; stroke-linecap: butt; stroke-dashoffset: 0; stroke-linejoin: miter; stroke-miterlimit: 4; fill: rgb(255,255,255); fill-rule: nonzero; opacity: 1;" vector-effect="non-scaling-stroke"  transform=" translate(-6432.71, -7180)" d="M 6402 7223 C 6411 7213 6421 7194 6425 7180 C 6433 7153 6458 7120 6471 7120 C 6482 7120 6443 7222 6428 7232 C 6421 7236 6409 7240 6401 7240 C 6389 7240 6390 7237 6402 7223 z" stroke-linecap="round" />
</g>
<g transform="matrix(0.09 0 0 -0.09 594.24 182.28)"  >
<path style="stroke: none; stroke-width: 1; stroke-dasharray: none; stroke-linecap: butt; stroke-dashoffset: 0; stroke-linejoin: miter; stroke-miterlimit: 4; fill: rgb(255,255,255); fill-rule: nonzero; opacity: 1;" vector-effect="non-scaling-stroke"  transform=" translate(-6533.92, -7181.96)" d="M 6516 7205 C 6525 7144 6530 7130 6546 7130 C 6558 7130 6558 7135 6546 7163 C 6509 7250 6510 7248 6516 7205 z" stroke-linecap="round" />
</g>
<g transform="matrix(0.09 0 0 -0.09 349.1 182.8)"  >
<path style="stroke: none; stroke-width: 1; stroke-dasharray: none; stroke-linecap: butt; stroke-dashoffset: 0; stroke-linejoin: miter; stroke-miterlimit: 4; fill: rgb(255,255,255); fill-rule: nonzero; opacity: 1;" vector-effect="non-scaling-stroke"  transform=" translate(-3838.49, -7176.28)" d="M 3848 7203 C 3827 7179 3807 7139 3813 7134 C 3816 7131 3829 7149 3843 7174 C 3871 7224 3872 7230 3848 7203 z" stroke-linecap="round" />
</g>
<g transform="matrix(0.09 0 0 -0.09 355.93 182.88)"  >
<path style="stroke: none; stroke-width: 1; stroke-dasharray: none; stroke-linecap: butt; stroke-dashoffset: 0; stroke-linejoin: miter; stroke-miterlimit: 4; fill: rgb(255,255,255); fill-rule: nonzero; opacity: 1;" vector-effect="non-scaling-stroke"  transform=" translate(-3913.55, -7175.4)" d="M 3910 7200 C 3910 7192 3907 7174 3904 7160 C 3899 7136 3900 7136 3915 7164 C 3927 7184 3929 7195 3921 7203 C 3913 7211 3910 7210 3910 7200 z" stroke-linecap="round" />
</g>
<g transform="matrix(0.09 0 0 -0.09 582.3 184.12)"  >
<path style="stroke: none; stroke-width: 1; stroke-dasharray: none; stroke-linecap: butt; stroke-dashoffset: 0; stroke-linejoin: miter; stroke-miterlimit: 4; fill: rgb(255,255,255); fill-rule: nonzero; opacity: 1;" vector-effect="non-scaling-stroke"  transform=" translate(-6402.63, -7161.81)" d="M 6390 7175 C 6428 7109 6444 7098 6415 7157 C 6406 7174 6392 7194 6383 7201 C 6371 7211 6373 7203 6390 7175 z" stroke-linecap="round" />
</g>
<g transform="matrix(0.09 0 0 -0.09 603.71 182.47)"  >
<path style="stroke: none; stroke-width: 1; stroke-dasharray: none; stroke-linecap: butt; stroke-dashoffset: 0; stroke-linejoin: miter; stroke-miterlimit: 4; fill: rgb(255,255,255); fill-rule: nonzero; opacity: 1;" vector-effect="non-scaling-stroke"  transform=" translate(-6638.04, -7179.93)" d="M 6626 7195 C 6623 7186 6616 7182 6610 7185 C 6594 7195 6598 7174 6614 7160 C 6622 7154 6639 7150 6652 7152 C 6683 7156 6685 7204 6654 7208 C 6641 7210 6630 7204 6626 7195 z" stroke-linecap="round" />
</g>
<g transform="matrix(0.09 0 0 -0.09 351.82 184.26)"  >
<path style="stroke: none; stroke-width: 1; stroke-dasharray: none; stroke-linecap: butt; stroke-dashoffset: 0; stroke-linejoin: miter; stroke-miterlimit: 4; fill: rgb(255,255,255); fill-rule: nonzero; opacity: 1;" vector-effect="non-scaling-stroke"  transform=" translate(-3868.35, -7160.22)" d="M 3861 7164 C 3836 7122 3843 7104 3871 7139 C 3887 7159 3898 7200 3886 7200 C 3884 7200 3872 7184 3861 7164 z" stroke-linecap="round" />
</g>
<g transform="matrix(0.09 0 0 -0.09 465.98 215.37)"  >
<path style="stroke: none; stroke-width: 1; stroke-dasharray: none; stroke-linecap: butt; stroke-dashoffset: 0; stroke-linejoin: miter; stroke-miterlimit: 4; fill: rgb(255,255,255); fill-rule: nonzero; opacity: 1;" vector-effect="non-scaling-stroke"  transform=" translate(-5123.63, -6818.17)" d="M 4724 7181 C 4621 7143 4542 7085 4494 7008 C 4473 6974 4430 6863 4430 6841 C 4430 6836 4491 6832 4578 6833 C 4693 6834 4738 6831 4783 6817 C 4892 6784 4949 6705 4937 6602 C 4934 6578 4937 6546 4943 6530 C 4951 6509 4951 6495 4943 6477 L 4932 6453 L 5022 6446 C 5072 6443 5152 6440 5199 6440 L 5285 6440 L 5283 6510 C 5283 6549 5279 6588 5276 6596 C 5266 6621 5288 6686 5317 6720 C 5393 6810 5582 6842 5760 6795 C 5790 6787 5816 6780 5817 6780 C 5819 6780 5809 6810 5795 6848 C 5743 6986 5646 7097 5521 7159 L 5465 7187 L 5120 7193 C 4802 7199 4771 7198 4724 7181 z" stroke-linecap="round" />
</g>
<g transform="matrix(0.09 0 0 -0.09 575.22 183.77)"  >
<path style="stroke: none; stroke-width: 1; stroke-dasharray: none; stroke-linecap: butt; stroke-dashoffset: 0; stroke-linejoin: miter; stroke-miterlimit: 4; fill: rgb(255,255,255); fill-rule: nonzero; opacity: 1;" vector-effect="non-scaling-stroke"  transform=" translate(-6324.74, -7165.62)" d="M 6310 7183 C 6310 7173 6318 7156 6327 7145 C 6341 7127 6342 7127 6336 7143 C 6333 7153 6330 7170 6330 7181 C 6330 7191 6326 7200 6320 7200 C 6315 7200 6310 7192 6310 7183 z" stroke-linecap="round" />
</g>
<g transform="matrix(0.09 0 0 -0.09 579.5 185.82)"  >
<path style="stroke: none; stroke-width: 1; stroke-dasharray: none; stroke-linecap: butt; stroke-dashoffset: 0; stroke-linejoin: miter; stroke-miterlimit: 4; fill: rgb(255,255,255); fill-rule: nonzero; opacity: 1;" vector-effect="non-scaling-stroke"  transform=" translate(-6371.82, -7143.08)" d="M 6350 7168 C 6350 7150 6378 7110 6391 7110 C 6402 7110 6376 7165 6360 7175 C 6355 7178 6350 7175 6350 7168 z" stroke-linecap="round" />
</g>
<g transform="matrix(0.09 0 0 -0.09 357.12 187.94)"  >
<path style="stroke: none; stroke-width: 1; stroke-dasharray: none; stroke-linecap: butt; stroke-dashoffset: 0; stroke-linejoin: miter; stroke-miterlimit: 4; fill: rgb(255,255,255); fill-rule: nonzero; opacity: 1;" vector-effect="non-scaling-stroke"  transform=" translate(-3926.65, -7119.82)" d="M 3922 7135 C 3908 7104 3907 7080 3919 7080 C 3924 7080 3932 7098 3938 7120 C 3949 7165 3939 7174 3922 7135 z" stroke-linecap="round" />
</g>
<g transform="matrix(0.09 0 0 -0.09 573.8 188.43)"  >
<path style="stroke: none; stroke-width: 1; stroke-dasharray: none; stroke-linecap: butt; stroke-dashoffset: 0; stroke-linejoin: miter; stroke-miterlimit: 4; fill: rgb(255,255,255); fill-rule: nonzero; opacity: 1;" vector-effect="non-scaling-stroke"  transform=" translate(-6309.19, -7114.4)" d="M 6296 7118 C 6304 7068 6307 7063 6321 7077 C 6328 7084 6327 7098 6316 7124 C 6296 7172 6288 7170 6296 7118 z" stroke-linecap="round" />
</g>
<g transform="matrix(0.09 0 0 -0.09 418.83 233.15)"  >
<path style="stroke: none; stroke-width: 1; stroke-dasharray: none; stroke-linecap: butt; stroke-dashoffset: 0; stroke-linejoin: miter; stroke-miterlimit: 4; fill: rgb(255,255,255); fill-rule: nonzero; opacity: 1;" vector-effect="non-scaling-stroke"  transform=" translate(-4605.2, -6622.72)" d="M 4565 6791 C 4534 6785 4545 6783 4616 6782 C 4746 6781 4808 6761 4860 6705 C 4913 6648 4881 6543 4797 6501 C 4742 6474 4679 6470 4435 6482 L 4285 6489 L 4385 6470 C 4511 6446 4682 6444 4765 6466 C 4798 6475 4844 6481 4867 6481 C 4900 6480 4911 6484 4920 6500 C 4926 6511 4927 6526 4923 6533 C 4919 6539 4917 6571 4918 6602 C 4923 6693 4882 6746 4785 6776 C 4729 6792 4616 6800 4565 6791 z" stroke-linecap="round" />
</g>
<g transform="matrix(0.09 0 0 -0.09 510.2 233.83)"  >
<path style="stroke: none; stroke-width: 1; stroke-dasharray: none; stroke-linecap: butt; stroke-dashoffset: 0; stroke-linejoin: miter; stroke-miterlimit: 4; fill: rgb(255,255,255); fill-rule: nonzero; opacity: 1;" vector-effect="non-scaling-stroke"  transform=" translate(-5609.81, -6615.19)" d="M 5490 6776 C 5420 6761 5379 6739 5347 6700 C 5316 6663 5305 6615 5319 6577 C 5327 6557 5327 6544 5317 6530 C 5298 6498 5319 6475 5371 6473 C 5395 6472 5447 6464 5485 6454 C 5568 6435 5763 6440 5870 6464 C 5934 6479 5931 6479 5780 6472 C 5555 6462 5495 6465 5441 6492 C 5384 6521 5359 6555 5353 6614 C 5343 6701 5409 6752 5561 6774 C 5644 6786 5648 6788 5600 6788 C 5570 6788 5520 6783 5490 6776 z" stroke-linecap="round" />
</g>
<g transform="matrix(0.09 0 0 -0.09 517.18 219.32)"  >
<path style="stroke: none; stroke-width: 1; stroke-dasharray: none; stroke-linecap: butt; stroke-dashoffset: 0; stroke-linejoin: miter; stroke-miterlimit: 4; fill: rgb(255,255,255); fill-rule: nonzero; opacity: 1;" vector-effect="non-scaling-stroke"  transform=" translate(-5686.61, -6774.75)" d="M 5673 6773 C 5682 6771 5696 6771 5703 6773 C 5709 6776 5702 6778 5685 6778 C 5669 6778 5663 6776 5673 6773 z" stroke-linecap="round" />
</g>
<g transform="matrix(0.09 0 0 -0.09 365.36 234.37)"  >
<path style="stroke: none; stroke-width: 1; stroke-dasharray: none; stroke-linecap: butt; stroke-dashoffset: 0; stroke-linejoin: miter; stroke-miterlimit: 4; fill: rgb(255,255,255); fill-rule: nonzero; opacity: 1;" vector-effect="non-scaling-stroke"  transform=" translate(-4017.23, -6609.28)" d="M 3715 6736 C 3668 6718 3645 6690 3631 6633 C 3607 6538 3622 6473 3667 6482 C 3682 6485 3684 6494 3682 6533 C 3680 6559 3684 6603 3690 6631 C 3706 6695 3741 6720 3815 6719 L 3865 6718 L 3815 6705 C 3734 6682 3714 6645 3727 6540 C 3738 6454 3759 6451 3778 6534 C 3799 6630 3836 6665 3899 6650 C 3922 6645 3920 6643 3882 6632 C 3838 6619 3819 6594 3806 6534 C 3801 6512 3804 6499 3816 6489 C 3830 6478 3834 6478 3846 6494 C 3853 6505 3857 6524 3853 6541 C 3849 6562 3854 6575 3873 6594 C 3911 6632 3923 6626 3895 6584 C 3861 6534 3863 6500 3902 6479 C 3919 6470 3921 6471 3915 6489 C 3910 6507 3912 6508 3944 6503 C 3970 6499 3985 6503 4006 6519 C 4037 6543 4072 6546 4089 6526 C 4099 6515 4096 6509 4079 6496 L 4057 6481 L 4083 6475 C 4130 6463 4145 6494 4114 6538 C 4088 6576 4107 6576 4143 6538 L 4177 6502 L 4201 6532 C 4216 6550 4246 6569 4280 6581 L 4335 6599 L 4285 6600 C 4221 6602 4234 6607 4345 6624 C 4430 6637 4432 6638 4380 6639 C 4318 6640 4247 6658 4180 6688 C 4152 6701 4083 6715 3995 6725 C 3773 6751 3758 6751 3715 6736 z" stroke-linecap="round" />
</g>
<g transform="matrix(0.09 0 0 -0.09 411.56 232.89)"  >
<path style="stroke: none; stroke-width: 1; stroke-dasharray: none; stroke-linecap: butt; stroke-dashoffset: 0; stroke-linejoin: miter; stroke-miterlimit: 4; fill: rgb(255,255,255); fill-rule: nonzero; opacity: 1;" vector-effect="non-scaling-stroke"  transform=" translate(-4525.27, -6625.54)" d="M 4455 6738 C 4417 6733 4340 6726 4285 6722 L 4185 6714 L 4252 6692 C 4289 6681 4384 6663 4462 6653 C 4572 6640 4598 6634 4575 6628 C 4559 6624 4500 6609 4444 6596 C 4389 6582 4319 6560 4289 6546 L 4235 6522 L 4300 6521 C 4336 6520 4435 6515 4520 6509 C 4657 6499 4683 6499 4740 6514 C 4851 6543 4896 6617 4844 6686 C 4805 6738 4767 6750 4640 6749 C 4577 6748 4494 6743 4455 6738 z" stroke-linecap="round" />
</g>
<g transform="matrix(0.09 0 0 -0.09 519.64 233.42)"  >
<path style="stroke: none; stroke-width: 1; stroke-dasharray: none; stroke-linecap: butt; stroke-dashoffset: 0; stroke-linejoin: miter; stroke-miterlimit: 4; fill: rgb(255,255,255); fill-rule: nonzero; opacity: 1;" vector-effect="non-scaling-stroke"  transform=" translate(-5713.65, -6619.74)" d="M 5510 6741 C 5403 6726 5345 6648 5385 6571 C 5416 6509 5531 6484 5708 6500 C 5772 6505 5866 6510 5915 6511 L 6005 6512 L 5955 6535 C 5901 6559 5792 6591 5697 6610 C 5665 6617 5640 6623 5642 6625 C 5644 6626 5705 6635 5779 6645 C 5853 6654 5946 6672 5984 6685 L 6055 6708 L 6007 6709 C 5981 6710 5897 6716 5822 6724 C 5631 6744 5562 6748 5510 6741 z" stroke-linecap="round" />
</g>
<g transform="matrix(0.09 0 0 -0.09 565.58 235.19)"  >
<path style="stroke: none; stroke-width: 1; stroke-dasharray: none; stroke-linecap: butt; stroke-dashoffset: 0; stroke-linejoin: miter; stroke-miterlimit: 4; fill: rgb(255,255,255); fill-rule: nonzero; opacity: 1;" vector-effect="non-scaling-stroke"  transform=" translate(-6218.72, -6600.27)" d="M 6255 6719 C 6160 6707 6089 6693 6060 6680 C 5997 6651 5914 6630 5855 6629 C 5807 6628 5808 6627 5875 6619 C 5914 6614 5956 6606 5970 6601 C 5992 6593 5989 6591 5950 6590 L 5905 6589 L 5960 6571 C 5993 6559 6024 6540 6039 6522 L 6063 6493 L 6093 6526 C 6126 6564 6150 6572 6126 6538 C 6108 6513 6105 6474 6120 6465 C 6126 6462 6139 6462 6151 6465 C 6170 6471 6170 6473 6154 6484 C 6130 6502 6143 6530 6176 6530 C 6190 6530 6215 6521 6231 6509 C 6251 6495 6271 6489 6291 6492 C 6315 6496 6320 6493 6320 6477 C 6320 6461 6322 6460 6336 6470 C 6376 6504 6373 6549 6327 6599 L 6305 6623 L 6337 6606 C 6377 6586 6383 6575 6382 6530 C 6380 6482 6405 6456 6425 6484 C 6434 6496 6436 6509 6430 6523 C 6425 6535 6419 6557 6416 6572 C 6409 6602 6368 6629 6328 6631 C 6307 6632 6307 6632 6333 6642 C 6394 6664 6460 6596 6460 6512 C 6460 6472 6475 6455 6498 6469 C 6515 6479 6516 6620 6500 6647 C 6483 6674 6452 6691 6403 6700 C 6366 6708 6366 6708 6417 6709 C 6518 6711 6549 6676 6553 6553 C 6555 6478 6556 6475 6579 6475 C 6613 6475 6624 6522 6610 6598 C 6598 6665 6576 6699 6529 6722 C 6488 6744 6450 6743 6255 6719 z" stroke-linecap="round" />
</g>
<g transform="matrix(0.09 0 0 -0.09 462.6 490.77)"  >
<path style="stroke: none; stroke-width: 1; stroke-dasharray: none; stroke-linecap: butt; stroke-dashoffset: 0; stroke-linejoin: miter; stroke-miterlimit: 4; fill: rgb(255,255,255); fill-rule: nonzero; opacity: 1;" vector-effect="non-scaling-stroke"  transform=" translate(-5086.5, -3790)" d="M 4566 5948 C 4562 5726 4555 5046 4550 4435 C 4544 3825 4535 2871 4530 2315 C 4525 1760 4520 1288 4520 1268 C 4520 1230 4520 1230 4560 1230 C 4584 1230 4602 1235 4605 1242 C 4608 1254 4632 3524 4648 5535 L 4655 6315 L 4685 6315 L 4715 6315 L 4712 6020 C 4705 5254 4689 3565 4680 2735 C 4675 2229 4670 1683 4670 1523 L 4670 1230 L 4729 1230 L 4788 1230 L 4794 1553 C 4797 1730 4805 2388 4810 3015 C 4816 3642 4825 4576 4830 5090 C 4835 5604 4840 6091 4840 6173 L 4840 6320 L 4877 6320 L 4913 6320 L 4906 5558 C 4902 5138 4895 4350 4890 3805 C 4885 3260 4878 2458 4874 2023 L 4867 1230 L 4947 1230 L 5027 1230 L 5034 1753 C 5038 2040 5047 2914 5055 3695 C 5063 4476 5072 5386 5076 5718 L 5083 6320 L 5121 6320 L 5160 6320 L 5160 6263 C 5160 6231 5156 5816 5150 5340 C 5145 4864 5136 3935 5131 3275 C 5125 2615 5118 1885 5114 1653 L 5108 1230 L 5188 1230 L 5268 1230 L 5274 1373 C 5277 1451 5287 2298 5296 3255 C 5305 4212 5315 5292 5319 5655 L 5325 6315 L 5364 6318 L 5403 6321 L 5396 5678 C 5382 4375 5370 3101 5364 2178 L 5357 1230 L 5407 1230 L 5458 1230 L 5464 1603 C 5467 1807 5477 2668 5486 3515 C 5494 4362 5504 5339 5508 5685 L 5515 6315 L 5539 6318 C 5552 6320 5566 6318 5571 6313 C 5576 6308 5575 5912 5570 5425 C 5565 4941 5556 4010 5551 3355 C 5545 2700 5538 1955 5534 1698 L 5528 1230 L 5563 1230 L 5598 1230 L 5604 1442 C 5607 1559 5617 2409 5625 3330 C 5633 4251 5643 5308 5647 5678 L 5653 6350 L 5113 6350 L 4572 6350 L 4566 5948 z" stroke-linecap="round" />
</g>
<g transform="matrix(0.09 0 0 -0.09 458.83 728.15)"  >
<path style="stroke: none; stroke-width: 1; stroke-dasharray: none; stroke-linecap: butt; stroke-dashoffset: 0; stroke-linejoin: miter; stroke-miterlimit: 4; fill: rgb(255,255,255); fill-rule: nonzero; opacity: 1;" vector-effect="non-scaling-stroke"  transform=" translate(-5045, -1180)" d="M 4450 1180 C 4450 1173 4655 1170 5045 1170 C 5435 1170 5640 1173 5640 1180 C 5640 1187 5435 1190 5045 1190 C 4655 1190 4450 1187 4450 1180 z" stroke-linecap="round" />
</g>
<g transform="matrix(0.09 0 0 -0.09 459.18 738.34)"  >
<path style="stroke: none; stroke-width: 1; stroke-dasharray: none; stroke-linecap: butt; stroke-dashoffset: 0; stroke-linejoin: miter; stroke-miterlimit: 4; fill: rgb(255,255,255); fill-rule: nonzero; opacity: 1;" vector-effect="non-scaling-stroke"  transform=" translate(-5048.81, -1067.91)" d="M 4440 1143 C 4397 1127 4378 1082 4396 1035 C 4413 993 4427 992 5052 988 C 5645 985 5649 985 5677 1006 C 5711 1032 5719 1074 5693 1102 C 5651 1150 5647 1150 5033 1149 C 4715 1149 4448 1146 4440 1143 z" stroke-linecap="round" />
</g>
<g transform="matrix(0.09 0 0 -0.09 456.36 775.02)"  >
<path style="stroke: none; stroke-width: 1; stroke-dasharray: none; stroke-linecap: butt; stroke-dashoffset: 0; stroke-linejoin: miter; stroke-miterlimit: 4; fill: rgb(255,255,255); fill-rule: nonzero; opacity: 1;" vector-effect="non-scaling-stroke"  transform=" translate(-5017.89, -664.61)" d="M 4348 939 C 4327 929 4303 906 4295 889 C 4285 871 4271 787 4259 682 C 4248 585 4233 477 4225 442 C 4217 407 4210 377 4210 374 C 4210 372 4223 370 4238 370 C 4262 370 4271 378 4292 418 C 4332 492 4343 536 4336 593 C 4328 656 4316 680 4299 663 C 4291 655 4291 632 4298 579 C 4307 506 4300 460 4280 460 C 4274 460 4270 501 4270 570 C 4270 657 4274 691 4291 736 C 4314 796 4321 796 4340 737 C 4346 717 4356 702 4360 705 C 4365 708 4382 733 4397 760 C 4412 788 4428 810 4432 810 C 4436 810 4452 786 4466 758 C 4481 729 4494 703 4496 701 C 4501 695 4575 771 4584 791 C 4588 800 4592 801 4595 794 C 4598 788 4614 761 4631 736 L 4661 688 L 4716 745 C 4747 776 4773 800 4774 798 C 4776 796 4781 788 4786 779 C 4791 770 4810 746 4827 726 L 4860 689 L 4890 722 C 4907 740 4928 767 4937 783 C 4947 798 4957 810 4960 810 C 4963 810 4980 783 4998 750 L 5032 690 L 5071 720 C 5092 737 5118 762 5129 776 C 5139 789 5152 800 5156 800 C 5161 800 5185 780 5210 755 L 5257 709 L 5306 754 C 5356 801 5370 808 5370 789 C 5370 783 5389 760 5412 737 L 5453 696 L 5496 743 C 5532 783 5539 788 5544 772 C 5548 762 5562 742 5576 729 L 5602 705 L 5623 731 C 5635 745 5650 766 5657 776 C 5668 793 5670 793 5679 779 C 5685 770 5698 752 5709 739 L 5728 715 L 5744 755 C 5754 777 5764 790 5769 784 C 5787 764 5814 661 5821 580 C 5827 515 5827 526 5823 625 C 5815 843 5794 910 5726 941 C 5687 958 5647 960 5035 959 C 4408 959 4384 958 4348 939 z M 4675 935 C 4681 935 4684 927 4684 918 C 4683 907 4688 904 4698 907 C 4707 911 4711 909 4707 903 C 4703 897 4704 890 4709 888 C 4714 887 4712 876 4704 866 C 4691 848 4689 848 4672 863 C 4649 884 4636 884 4620 865 C 4605 846 4589 846 4566 863 C 4548 876 4548 877 4566 898 C 4576 910 4590 920 4597 920 C 4604 920 4610 925 4610 931 C 4610 937 4617 940 4625 936 C 4633 933 4640 935 4640 941 C 4640 947 4645 948 4653 943 C 4659 939 4670 935 4675 935 z M 4870 940 C 4870 935 4877 933 4887 937 C 4900 942 4902 939 4898 922 C 4894 906 4896 903 4908 907 C 4917 911 4921 909 4917 903 C 4913 897 4914 890 4919 888 C 4924 887 4922 876 4914 866 C 4901 848 4899 848 4882 863 C 4859 884 4851 884 4830 865 C 4817 853 4807 852 4786 859 C 4761 869 4750 890 4769 890 C 4774 890 4782 899 4785 911 C 4789 923 4797 929 4806 926 C 4814 923 4820 925 4820 931 C 4820 937 4827 940 4835 936 C 4843 933 4850 935 4850 940 C 4850 946 4855 950 4860 950 C 4866 950 4870 946 4870 940 z M 5080 940 C 5080 935 5087 933 5095 936 C 5104 940 5110 936 5110 926 C 5110 917 5115 910 5121 910 C 5126 910 5129 906 5126 901 C 5122 896 5124 890 5129 888 C 5134 887 5132 876 5124 866 C 5111 847 5110 847 5089 866 C 5070 883 5067 883 5041 869 C 5020 857 5008 855 4994 863 C 4965 878 4965 879 4988 898 C 5000 909 5006 921 5002 925 C 4998 930 5003 930 5013 927 C 5022 923 5030 925 5030 931 C 5030 937 5037 940 5045 936 C 5053 933 5060 935 5060 940 C 5060 946 5065 950 5070 950 C 5076 950 5080 946 5080 940 z M 5280 940 C 5280 935 5286 931 5293 933 C 5299 934 5304 927 5304 918 C 5303 907 5308 904 5318 907 C 5328 911 5331 909 5326 902 C 5322 895 5324 890 5331 890 C 5338 890 5336 882 5325 870 C 5308 851 5306 851 5288 867 C 5269 884 5267 884 5238 867 C 5216 854 5204 853 5189 860 C 5168 872 5163 890 5182 890 C 5188 890 5191 893 5187 896 C 5177 906 5209 932 5221 924 C 5228 920 5230 921 5226 928 C 5221 937 5228 941 5273 949 C 5277 949 5280 946 5280 940 z M 5470 940 C 5470 935 5477 933 5485 936 C 5493 940 5500 937 5500 930 C 5500 924 5507 912 5515 904 C 5526 892 5527 884 5520 869 C 5507 846 5497 845 5480 865 C 5464 884 5451 884 5428 863 C 5413 850 5405 849 5385 858 C 5358 870 5350 896 5376 886 C 5385 883 5388 884 5385 891 C 5377 903 5399 932 5411 924 C 5416 921 5420 924 5420 930 C 5420 937 5427 940 5435 936 C 5443 933 5450 935 5450 940 C 5450 946 5455 950 5460 950 C 5466 950 5470 946 5470 940 z M 4452 925 C 4457 919 4460 919 4460 928 C 4460 934 4465 940 4470 940 C 4476 940 4480 931 4480 919 C 4480 908 4484 901 4489 904 C 4505 914 4511 877 4496 861 C 4482 848 4479 848 4462 863 C 4439 884 4431 884 4408 863 C 4393 850 4385 849 4365 858 C 4339 870 4329 896 4354 887 C 4364 883 4367 886 4363 896 C 4359 906 4365 913 4379 917 C 4390 920 4400 926 4400 931 C 4400 942 4444 938 4452 925 z M 5663 927 C 5658 919 5661 919 5672 927 C 5690 942 5701 934 5693 912 C 5689 903 5691 899 5697 903 C 5713 913 5722 882 5709 858 L 5698 838 L 5679 859 C 5655 884 5652 885 5628 863 C 5614 850 5603 848 5582 856 C 5567 861 5557 870 5560 875 C 5563 881 5569 884 5573 882 C 5578 881 5579 884 5576 889 C 5568 901 5596 923 5609 915 C 5615 912 5617 915 5614 923 C 5611 933 5618 937 5640 938 C 5661 938 5668 935 5663 927 z" stroke-linecap="round" />
</g>
<g transform="matrix(0.09 0 0 -0.09 487.23 787.26)"  >
<path style="stroke: none; stroke-width: 1; stroke-dasharray: none; stroke-linecap: butt; stroke-dashoffset: 0; stroke-linejoin: miter; stroke-miterlimit: 4; fill: rgb(255,255,255); fill-rule: nonzero; opacity: 1;" vector-effect="non-scaling-stroke"  transform=" translate(-5357.3, -530)" d="M 5290 675 C 5274 656 5285 553 5311 486 C 5329 438 5370 370 5381 370 C 5388 370 5434 625 5432 654 C 5430 684 5415 693 5396 675 C 5383 662 5380 637 5380 542 C 5380 471 5376 430 5371 435 C 5359 448 5340 552 5340 607 C 5340 652 5326 690 5311 690 C 5306 690 5297 683 5290 675 z" stroke-linecap="round" />
</g>
<g transform="matrix(0.09 0 0 -0.09 469.55 787.3)"  >
<path style="stroke: none; stroke-width: 1; stroke-dasharray: none; stroke-linecap: butt; stroke-dashoffset: 0; stroke-linejoin: miter; stroke-miterlimit: 4; fill: rgb(255,255,255); fill-rule: nonzero; opacity: 1;" vector-effect="non-scaling-stroke"  transform=" translate(-5162.9, -529.58)" d="M 5192 671 C 5182 665 5180 638 5182 567 C 5184 500 5181 467 5173 459 C 5162 449 5160 459 5160 509 C 5160 591 5127 672 5096 668 C 5077 665 5075 659 5076 604 C 5077 555 5084 526 5115 461 C 5136 417 5157 380 5161 380 C 5182 380 5250 567 5250 625 C 5250 671 5224 692 5192 671 z" stroke-linecap="round" />
</g>
<g transform="matrix(0.09 0 0 -0.09 502.58 787.65)"  >
<path style="stroke: none; stroke-width: 1; stroke-dasharray: none; stroke-linecap: butt; stroke-dashoffset: 0; stroke-linejoin: miter; stroke-miterlimit: 4; fill: rgb(255,255,255); fill-rule: nonzero; opacity: 1;" vector-effect="non-scaling-stroke"  transform=" translate(-5526.02, -525.74)" d="M 5473 664 C 5461 632 5477 503 5498 459 C 5526 403 5557 363 5565 372 C 5577 383 5590 664 5579 675 C 5550 705 5536 613 5554 508 C 5560 476 5559 460 5552 460 C 5536 460 5516 529 5515 595 C 5514 628 5512 661 5512 668 C 5509 685 5481 683 5473 664 z" stroke-linecap="round" />
</g>
<g transform="matrix(0.09 0 0 -0.09 401.31 787.64)"  >
<path style="stroke: none; stroke-width: 1; stroke-dasharray: none; stroke-linecap: butt; stroke-dashoffset: 0; stroke-linejoin: miter; stroke-miterlimit: 4; fill: rgb(255,255,255); fill-rule: nonzero; opacity: 1;" vector-effect="non-scaling-stroke"  transform=" translate(-4412.58, -525.89)" d="M 4357 663 C 4355 658 4359 603 4367 540 C 4374 477 4379 415 4377 402 C 4369 361 4394 384 4428 451 C 4452 499 4462 535 4467 587 C 4473 662 4463 683 4433 659 C 4421 648 4419 633 4424 580 C 4431 517 4420 460 4403 460 C 4398 460 4396 494 4398 536 C 4400 580 4397 624 4390 641 C 4378 669 4365 678 4357 663 z" stroke-linecap="round" />
</g>
<g transform="matrix(0.09 0 0 -0.09 415.79 788.31)"  >
<path style="stroke: none; stroke-width: 1; stroke-dasharray: none; stroke-linecap: butt; stroke-dashoffset: 0; stroke-linejoin: miter; stroke-miterlimit: 4; fill: rgb(255,255,255); fill-rule: nonzero; opacity: 1;" vector-effect="non-scaling-stroke"  transform=" translate(-4571.79, -518.5)" d="M 4520 618 C 4520 589 4523 520 4527 466 L 4533 367 L 4556 393 C 4591 434 4622 527 4623 600 C 4625 652 4622 665 4610 665 C 4598 665 4594 647 4590 585 C 4584 505 4569 460 4548 460 C 4542 460 4540 469 4544 483 C 4556 525 4563 618 4556 644 C 4553 658 4543 670 4535 670 C 4524 670 4520 657 4520 618 z" stroke-linecap="round" />
</g>
<g transform="matrix(0.09 0 0 -0.09 450.63 788.4)"  >
<path style="stroke: none; stroke-width: 1; stroke-dasharray: none; stroke-linecap: butt; stroke-dashoffset: 0; stroke-linejoin: miter; stroke-miterlimit: 4; fill: rgb(255,255,255); fill-rule: nonzero; opacity: 1;" vector-effect="non-scaling-stroke"  transform=" translate(-4954.79, -517.5)" d="M 4870 655 C 4851 632 4872 541 4919 445 L 4958 365 L 4993 440 C 5029 517 5055 625 5044 654 C 5036 675 4984 675 4976 655 C 4973 646 4973 599 4977 551 C 4984 443 4966 416 4956 521 C 4949 595 4919 670 4896 670 C 4889 670 4877 663 4870 655 z" stroke-linecap="round" />
</g>
<g transform="matrix(0.09 0 0 -0.09 515.83 788.2)"  >
<path style="stroke: none; stroke-width: 1; stroke-dasharray: none; stroke-linecap: butt; stroke-dashoffset: 0; stroke-linejoin: miter; stroke-miterlimit: 4; fill: rgb(255,255,255); fill-rule: nonzero; opacity: 1;" vector-effect="non-scaling-stroke"  transform=" translate(-5671.76, -519.69)" d="M 5624 655 C 5602 600 5650 442 5702 393 L 5725 371 L 5725 517 C 5725 622 5722 664 5713 667 C 5690 675 5677 593 5690 522 C 5702 452 5700 441 5679 466 C 5670 477 5663 517 5660 573 C 5657 633 5651 665 5643 668 C 5636 670 5627 664 5624 655 z" stroke-linecap="round" />
</g>
<g transform="matrix(0.09 0 0 -0.09 431.95 788.66)"  >
<path style="stroke: none; stroke-width: 1; stroke-dasharray: none; stroke-linecap: butt; stroke-dashoffset: 0; stroke-linejoin: miter; stroke-miterlimit: 4; fill: rgb(255,255,255); fill-rule: nonzero; opacity: 1;" vector-effect="non-scaling-stroke"  transform=" translate(-4749.43, -514.68)" d="M 4682 647 C 4676 640 4673 625 4675 614 C 4677 604 4689 544 4701 483 C 4713 421 4727 370 4731 370 C 4741 370 4772 415 4800 470 C 4841 551 4827 704 4784 646 C 4776 634 4770 602 4770 566 C 4770 499 4754 430 4740 430 C 4734 430 4730 469 4730 519 C 4730 637 4712 684 4682 647 z" stroke-linecap="round" />
</g>
<g transform="matrix(0.09 0 0 -0.09 529.65 789.54)"  >
<path style="stroke: none; stroke-width: 1; stroke-dasharray: none; stroke-linecap: butt; stroke-dashoffset: 0; stroke-linejoin: miter; stroke-miterlimit: 4; fill: rgb(255,255,255); fill-rule: nonzero; opacity: 1;" vector-effect="non-scaling-stroke"  transform=" translate(-5823.66, -505)" d="M 5766 613 C 5755 544 5760 495 5781 455 C 5793 433 5809 403 5817 388 C 5827 368 5839 360 5859 360 L 5887 360 L 5866 403 C 5848 440 5844 443 5839 425 C 5833 406 5832 406 5823 430 C 5817 444 5805 499 5795 553 C 5786 606 5777 650 5775 650 C 5774 650 5770 633 5766 613 z" stroke-linecap="round" />
</g>
<g transform="matrix(0.09 0 0 -0.09 497.06 795.44)"  >
<path style="stroke: none; stroke-width: 1; stroke-dasharray: none; stroke-linecap: butt; stroke-dashoffset: 0; stroke-linejoin: miter; stroke-miterlimit: 4; fill: rgb(255,255,255); fill-rule: nonzero; opacity: 1;" vector-effect="non-scaling-stroke"  transform=" translate(-5465.39, -440.04)" d="M 5428 453 C 5418 411 5411 376 5413 374 C 5421 367 5522 359 5518 366 C 5502 400 5461 489 5454 508 C 5446 527 5442 518 5428 453 z" stroke-linecap="round" />
</g>
<g transform="matrix(0.09 0 0 -0.09 459.97 795.13)"  >
<path style="stroke: none; stroke-width: 1; stroke-dasharray: none; stroke-linecap: butt; stroke-dashoffset: 0; stroke-linejoin: miter; stroke-miterlimit: 4; fill: rgb(255,255,255); fill-rule: nonzero; opacity: 1;" vector-effect="non-scaling-stroke"  transform=" translate(-5057.5, -443.5)" d="M 5020 443 L 4984 370 L 5058 370 L 5131 370 L 5109 401 C 5097 418 5080 451 5071 474 L 5055 517 L 5020 443 z" stroke-linecap="round" />
</g>
<g transform="matrix(0.09 0 0 -0.09 441.09 795.45)"  >
<path style="stroke: none; stroke-width: 1; stroke-dasharray: none; stroke-linecap: butt; stroke-dashoffset: 0; stroke-linejoin: miter; stroke-miterlimit: 4; fill: rgb(255,255,255); fill-rule: nonzero; opacity: 1;" vector-effect="non-scaling-stroke"  transform=" translate(-4849.95, -440)" d="M 4815 447 C 4799 413 4784 382 4782 378 C 4780 373 4810 370 4848 370 L 4918 370 L 4887 440 C 4869 478 4853 510 4850 510 C 4847 509 4832 481 4815 447 z" stroke-linecap="round" />
</g>
<g transform="matrix(0.09 0 0 -0.09 479.07 795.31)"  >
<path style="stroke: none; stroke-width: 1; stroke-dasharray: none; stroke-linecap: butt; stroke-dashoffset: 0; stroke-linejoin: miter; stroke-miterlimit: 4; fill: rgb(255,255,255); fill-rule: nonzero; opacity: 1;" vector-effect="non-scaling-stroke"  transform=" translate(-5267.5, -441.5)" d="M 5228 441 L 5194 370 L 5267 370 L 5341 370 L 5314 405 C 5300 424 5282 456 5275 476 L 5263 513 L 5228 441 z" stroke-linecap="round" />
</g>
<g transform="matrix(0.09 0 0 -0.09 405.21 796.22)"  >
<path style="stroke: none; stroke-width: 1; stroke-dasharray: none; stroke-linecap: butt; stroke-dashoffset: 0; stroke-linejoin: miter; stroke-miterlimit: 4; fill: rgb(255,255,255); fill-rule: nonzero; opacity: 1;" vector-effect="non-scaling-stroke"  transform=" translate(-4455.44, -431.54)" d="M 4449 442 C 4436 411 4424 382 4422 378 C 4414 360 4470 371 4480 389 C 4492 412 4493 487 4482 494 C 4477 497 4462 474 4449 442 z" stroke-linecap="round" />
</g>
<g transform="matrix(0.09 0 0 -0.09 421.81 796.49)"  >
<path style="stroke: none; stroke-width: 1; stroke-dasharray: none; stroke-linecap: butt; stroke-dashoffset: 0; stroke-linejoin: miter; stroke-miterlimit: 4; fill: rgb(255,255,255); fill-rule: nonzero; opacity: 1;" vector-effect="non-scaling-stroke"  transform=" translate(-4638, -428.53)" d="M 4634 457 C 4623 439 4605 413 4596 398 L 4578 370 L 4638 370 L 4698 370 L 4678 428 C 4667 459 4657 486 4656 487 C 4656 488 4645 474 4634 457 z" stroke-linecap="round" />
</g>
<g transform="matrix(0.09 0 0 -0.09 530.66 792.19)"  >
<path style="stroke: none; stroke-width: 1; stroke-dasharray: none; stroke-linecap: butt; stroke-dashoffset: 0; stroke-linejoin: miter; stroke-miterlimit: 4; fill: rgb(255,255,255); fill-rule: nonzero; opacity: 1;" vector-effect="non-scaling-stroke"  transform=" translate(-5834.81, -475.86)" d="M 5831 474 C 5831 463 5834 460 5837 468 C 5840 475 5839 484 5836 487 C 5833 491 5830 485 5831 474 z" stroke-linecap="round" />
</g>
<g transform="matrix(0.09 0 0 -0.09 512.94 797.31)"  >
<path style="stroke: none; stroke-width: 1; stroke-dasharray: none; stroke-linecap: butt; stroke-dashoffset: 0; stroke-linejoin: miter; stroke-miterlimit: 4; fill: rgb(255,255,255); fill-rule: nonzero; opacity: 1;" vector-effect="non-scaling-stroke"  transform=" translate(-5640, -419.56)" d="M 5600 422 L 5600 360 L 5640 360 L 5680 360 L 5643 418 C 5623 449 5605 477 5604 479 C 5602 481 5600 456 5600 422 z" stroke-linecap="round" />
</g>
<g transform="matrix(0.09 0 0 -0.09 393.26 797.16)"  >
<path style="stroke: none; stroke-width: 1; stroke-dasharray: none; stroke-linecap: butt; stroke-dashoffset: 0; stroke-linejoin: miter; stroke-miterlimit: 4; fill: rgb(255,255,255); fill-rule: nonzero; opacity: 1;" vector-effect="non-scaling-stroke"  transform=" translate(-4324, -421.21)" d="M 4340 461 C 4340 455 4329 432 4315 410 L 4290 370 L 4324 370 L 4358 370 L 4352 418 C 4348 462 4340 489 4340 461 z" stroke-linecap="round" />
</g>
<g transform="matrix(0.09 0 0 -0.09 525.47 799.67)"  >
<path style="stroke: none; stroke-width: 1; stroke-dasharray: none; stroke-linecap: butt; stroke-dashoffset: 0; stroke-linejoin: miter; stroke-miterlimit: 4; fill: rgb(255,255,255); fill-rule: nonzero; opacity: 1;" vector-effect="non-scaling-stroke"  transform=" translate(-5777.77, -393.63)" d="M 5760 397 C 5760 367 5764 360 5780 360 C 5800 360 5800 361 5784 393 C 5761 438 5760 438 5760 397 z" stroke-linecap="round" />
</g>
<g transform="matrix(0.09 0 0 -0.09 459.74 807.86)"  >
<path style="stroke: none; stroke-width: 1; stroke-dasharray: none; stroke-linecap: butt; stroke-dashoffset: 0; stroke-linejoin: miter; stroke-miterlimit: 4; fill: rgb(255,255,255); fill-rule: nonzero; opacity: 1;" vector-effect="non-scaling-stroke"  transform=" translate(-5055, -303.5)" d="M 4210 310 L 4210 270 L 4888 270 C 5262 270 5642 267 5733 263 L 5900 257 L 5900 297 L 5900 337 L 5308 343 C 4982 347 4601 350 4463 350 L 4210 350 L 4210 310 z" stroke-linecap="round" />
</g>
</svg>